# Blender 4.4.3
# www.blender.org
mtllib core_mini.R.mtl
o core_mini.R
v 0.570160 -0.570160 -4.713666
v 0.668572 -0.285080 -4.615254
v 0.285080 -0.668572 -4.615254
v 0.668572 -0.668572 -4.998746
v 0.698301 -0.698301 -5.283826
v 0.867038 -0.334286 -4.949540
v 0.334286 -0.867038 -4.949540
v 0.349150 -0.923765 -5.283826
v -0.000000 -0.923765 -4.934676
v -0.000000 -0.987547 -5.283826
v -0.334286 -0.867038 -4.949540
v -0.000000 -0.698301 -4.585526
v -0.000000 -0.349150 -4.360061
v -0.285080 -0.668572 -4.615254
v -0.334286 -0.334286 -4.416789
v -0.570160 -0.570160 -4.713666
v -0.668572 -0.285080 -4.615254
v -0.668572 -0.668572 -4.998746
v -0.867038 -0.334286 -4.949540
v -0.698301 -0.698301 -5.283826
v -0.923765 -0.349150 -5.283826
v -0.668572 -0.668572 -5.568907
v -0.349150 -0.923765 -5.283826
v -0.334286 -0.867038 -5.618113
v -0.285080 -0.668572 -5.952399
v -0.000000 -0.923765 -5.632977
v -0.000000 -0.698301 -5.982127
v 0.334286 -0.867038 -5.618113
v 0.285080 -0.668572 -5.952399
v 0.668572 -0.668572 -5.568907
v 0.570160 -0.570160 -5.853987
v 0.867038 -0.334286 -5.618113
v 0.668572 -0.285080 -5.952399
v 0.923765 -0.349150 -5.283826
v 0.923765 0.000000 -5.632977
v 0.698301 0.000000 -5.982127
v 0.987547 0.000000 -5.283826
v 0.867038 0.334286 -5.618113
v 0.668572 0.285080 -5.952399
v 0.923765 0.349150 -5.283826
v 0.668572 0.668572 -5.568907
v 0.570160 0.570160 -5.853987
v 0.698301 0.698301 -5.283826
v 0.334286 0.867038 -5.618113
v 0.349150 0.923765 -5.283826
v -0.000000 0.923765 -5.632977
v 0.285080 0.668572 -5.952399
v 0.334286 0.334286 -6.150864
v -0.000000 0.698301 -5.982127
v -0.000000 0.349150 -6.207592
v -0.285080 0.668572 -5.952399
v -0.334286 0.334286 -6.150864
v -0.570160 0.570160 -5.853987
v -0.334286 0.867038 -5.618113
v -0.349150 0.923765 -5.283826
v -0.668572 0.668572 -5.568907
v -0.867038 0.334286 -5.618113
v -0.698301 0.698301 -5.283826
v -0.923765 0.349150 -5.283826
v -0.668572 0.668572 -4.998746
v -0.867038 0.334286 -4.949540
v -0.570160 0.570160 -4.713666
v -0.334286 0.867038 -4.949540
v -0.285080 0.668572 -4.615254
v -0.000000 0.923765 -4.934676
v -0.000000 0.698301 -4.585526
v 0.334286 0.867038 -4.949540
v -0.000000 0.987547 -5.283826
v 0.285080 0.668572 -4.615254
v 0.668572 0.668572 -4.998746
v 0.867038 0.334286 -4.949540
v 0.570160 0.570160 -4.713666
v 0.668572 0.285080 -4.615254
v 0.698301 0.000000 -4.585526
v 0.334286 0.334286 -4.416789
v 0.349150 0.000000 -4.360061
v -0.000000 0.349150 -4.360061
v -0.000000 0.000000 -4.296279
v -0.334286 0.334286 -4.416789
v -0.349150 0.000000 -4.360061
v -0.668572 0.285080 -4.615254
v -0.698301 0.000000 -4.585526
v -0.923765 0.000000 -4.934676
v -0.987547 0.000000 -5.283826
v -0.923765 0.000000 -5.632977
v -0.867038 -0.334286 -5.618113
v -0.698301 0.000000 -5.982127
v -0.668572 -0.285080 -5.952399
v -0.668572 0.285080 -5.952399
v -0.349150 0.000000 -6.207592
v -0.334286 -0.334286 -6.150864
v -0.000000 0.000000 -6.271373
v -0.000000 -0.349150 -6.207592
v 0.349150 0.000000 -6.207592
v 0.334286 -0.334286 -6.150864
v -0.570160 -0.570160 -5.853987
v 0.334286 -0.334286 -4.416789
v 0.923765 0.000000 -4.934676
vn 0.5774 -0.5774 0.5774
vn 0.6737 -0.3036 0.6737
vn 0.3036 -0.6737 0.6737
vn 0.6737 -0.6737 0.3036
vn 0.7071 -0.7071 -0.0000
vn 0.8766 -0.3403 0.3403
vn 0.3403 -0.8766 0.3403
vn 0.3610 -0.9326 -0.0000
vn -0.0000 -0.9326 0.3610
vn -0.0000 -1.0000 -0.0000
vn -0.3403 -0.8766 0.3403
vn -0.0000 -0.7071 0.7071
vn -0.0000 -0.3610 0.9326
vn -0.3036 -0.6737 0.6737
vn -0.3403 -0.3403 0.8766
vn -0.5774 -0.5774 0.5774
vn -0.6737 -0.3036 0.6737
vn -0.6737 -0.6737 0.3036
vn -0.8766 -0.3403 0.3403
vn -0.7071 -0.7071 -0.0000
vn -0.9326 -0.3610 -0.0000
vn -0.6737 -0.6737 -0.3036
vn -0.3610 -0.9326 -0.0000
vn -0.3403 -0.8766 -0.3403
vn -0.3036 -0.6737 -0.6737
vn -0.0000 -0.9326 -0.3610
vn -0.0000 -0.7071 -0.7071
vn 0.3403 -0.8766 -0.3403
vn 0.3036 -0.6737 -0.6737
vn 0.6737 -0.6737 -0.3036
vn 0.5774 -0.5774 -0.5774
vn 0.8766 -0.3403 -0.3403
vn 0.6737 -0.3036 -0.6737
vn 0.9326 -0.3610 -0.0000
vn 0.9326 -0.0000 -0.3610
vn 0.7071 -0.0000 -0.7071
vn 1.0000 -0.0000 -0.0000
vn 0.8766 0.3403 -0.3403
vn 0.6737 0.3036 -0.6737
vn 0.9326 0.3610 -0.0000
vn 0.6737 0.6737 -0.3036
vn 0.5774 0.5774 -0.5774
vn 0.7071 0.7071 -0.0000
vn 0.3403 0.8766 -0.3403
vn 0.3610 0.9326 -0.0000
vn -0.0000 0.9326 -0.3610
vn 0.3036 0.6737 -0.6737
vn 0.3403 0.3403 -0.8766
vn -0.0000 0.7071 -0.7071
vn -0.0000 0.3610 -0.9326
vn -0.3036 0.6737 -0.6737
vn -0.3403 0.3403 -0.8766
vn -0.5774 0.5774 -0.5774
vn -0.3403 0.8766 -0.3403
vn -0.3610 0.9326 -0.0000
vn -0.6737 0.6737 -0.3036
vn -0.8766 0.3403 -0.3403
vn -0.7071 0.7071 -0.0000
vn -0.9326 0.3610 -0.0000
vn -0.6737 0.6737 0.3036
vn -0.8766 0.3403 0.3403
vn -0.5774 0.5774 0.5774
vn -0.3403 0.8766 0.3403
vn -0.3036 0.6737 0.6737
vn -0.0000 0.9326 0.3610
vn -0.0000 0.7071 0.7071
vn 0.3403 0.8766 0.3403
vn -0.0000 1.0000 -0.0000
vn 0.3036 0.6737 0.6737
vn 0.6737 0.6737 0.3036
vn 0.8766 0.3403 0.3403
vn 0.5774 0.5774 0.5774
vn 0.6737 0.3036 0.6737
vn 0.7071 -0.0000 0.7071
vn 0.3403 0.3403 0.8766
vn 0.3610 -0.0000 0.9326
vn -0.0000 0.3610 0.9326
vn -0.0000 -0.0000 1.0000
vn -0.3403 0.3403 0.8766
vn -0.3610 -0.0000 0.9326
vn -0.6737 0.3036 0.6737
vn -0.7071 -0.0000 0.7071
vn -0.9326 -0.0000 0.3610
vn -1.0000 -0.0000 -0.0000
vn -0.9326 -0.0000 -0.3610
vn -0.8766 -0.3403 -0.3403
vn -0.7071 -0.0000 -0.7071
vn -0.6737 -0.3036 -0.6737
vn -0.6737 0.3036 -0.6737
vn -0.3610 -0.0000 -0.9326
vn -0.3403 -0.3403 -0.8766
vn -0.0000 -0.0000 -1.0000
vn -0.0000 -0.3610 -0.9326
vn 0.3610 -0.0000 -0.9326
vn 0.3403 -0.3403 -0.8766
vn -0.5774 -0.5773 -0.5774
vn 0.3403 -0.3403 0.8766
vn 0.9326 -0.0000 0.3610
vt 0.389249 0.733052
vt 0.379562 0.707570
vt 0.353476 0.715487
vt 0.365816 0.735565
vt 0.179818 0.739736
vt 0.165990 0.720651
vt 0.148693 0.741722
vt 0.168528 0.760424
vt 0.182675 0.274024
vt 0.196503 0.254939
vt 0.185214 0.234252
vt 0.165378 0.252953
vt 0.167884 0.288815
vt 0.149332 0.267734
vt 0.409436 0.727569
vt 0.400364 0.700993
vt 0.151342 0.236252
vt 0.134596 0.250988
vt 0.172423 0.217700
vt 0.136561 0.220206
vt 0.119860 0.234243
vt 0.157631 0.202908
vt 0.134656 0.758423
vt 0.155738 0.776975
vt 0.119876 0.774469
vt 0.140946 0.791766
vt 0.101174 0.794305
vt 0.121862 0.805594
vt 0.138547 0.189081
vt 0.117860 0.200371
vt 0.372788 0.328840
vt 0.352710 0.316499
vt 0.344792 0.342585
vt 0.370275 0.352273
vt 0.338215 0.363387
vt 0.364791 0.372459
vt 0.101308 0.213162
vt 0.330700 0.383868
vt 0.356786 0.391785
vt 0.103814 0.249024
vt 0.086517 0.227953
vt 0.117851 0.265725
vt 0.083978 0.267725
vt 0.072689 0.247037
vt 0.096769 0.284276
vt 0.111560 0.299068
vt 0.132632 0.281771
vt 0.130645 0.312895
vt 0.151333 0.301606
vt 0.448840 0.707223
vt 0.446327 0.683791
vt 0.420844 0.693477
vt 0.428761 0.719564
vt 0.440843 0.663604
vt 0.414267 0.672676
vt 0.393157 0.679883
vt 0.432838 0.644278
vt 0.406752 0.652195
vt 0.385951 0.658773
vt 0.420498 0.624200
vt 0.397065 0.626713
vt 0.376879 0.632196
vt 0.471686 0.322687
vt 0.459345 0.302609
vt 0.435912 0.305122
vt 0.445599 0.330604
vt 0.479691 0.342013
vt 0.453114 0.351085
vt 0.424798 0.337181
vt 0.432004 0.358291
vt 0.415726 0.310605
vt 0.250702 0.304940
vt 0.274746 0.317787
vt 0.280217 0.294864
vt 0.261870 0.280072
vt 0.241533 0.324736
vt 0.266740 0.337113
vt 0.231476 0.344096
vt 0.256344 0.355265
vt 0.396400 0.318610
vt 0.404317 0.344696
vt 0.218628 0.368140
vt 0.241551 0.373612
vt 0.376322 0.330950
vt 0.378835 0.354384
vt 0.410894 0.365498
vt 0.384318 0.374570
vt 0.289418 0.369775
vt 0.263936 0.360088
vt 0.261423 0.383521
vt 0.281501 0.395862
vt 0.295995 0.348974
vt 0.269419 0.339902
vt 0.303511 0.328493
vt 0.277424 0.320576
vt 0.418409 0.385979
vt 0.392323 0.393896
vt 0.313197 0.303011
vt 0.289765 0.300498
vt 0.428096 0.411461
vt 0.404663 0.413974
vt 0.448283 0.405978
vt 0.439211 0.379401
vt 0.467609 0.397973
vt 0.459692 0.371886
vt 0.487687 0.385632
vt 0.485174 0.362199
vt 0.365470 0.666288
vt 0.357553 0.640201
vt 0.337475 0.652542
vt 0.339988 0.675975
vt 0.134647 0.693069
vt 0.113959 0.681780
vt 0.094875 0.695608
vt 0.115946 0.712904
vt 0.372047 0.687089
vt 0.345471 0.696161
vt 0.151199 0.705860
vt 0.132647 0.726942
vt 0.101166 0.728951
vt 0.117911 0.743687
vt 0.080084 0.710399
vt 0.087129 0.745651
vt 0.103175 0.760432
vt 0.067293 0.726950
vt 0.069831 0.766722
vt 0.084623 0.781514
vt 0.056004 0.747638
vt 0.333384 0.308494
vt 0.324312 0.335070
vt 0.317105 0.356180
vt 0.309899 0.377290
vt 0.300827 0.403867
vt 0.321013 0.409350
vt 0.181151 0.349738
vt 0.199302 0.360135
vt 0.211679 0.334927
vt 0.192320 0.324870
vt 0.221510 0.314905
vt 0.201488 0.305073
vt 0.231342 0.294882
vt 0.211546 0.285714
vt 0.243719 0.269675
vt 0.224394 0.261670
vt 0.186678 0.274545
vt 0.201470 0.256198
vt 0.176281 0.292696
vt 0.168276 0.312022
vt 0.162804 0.334945
vt 0.344446 0.411863
s 1
usemtl windows
f 4/1/4 6/2/6 2/3/2 1/4/1
f 1/5/1 2/6/2 97/7/97 3/8/3
f 4/9/4 1/10/1 3/11/3 7/12/7
f 5/13/5 4/9/4 7/12/7 8/14/8
f 5/15/5 34/16/34 6/2/6 4/1/4
f 8/14/8 7/12/7 9/17/9 10/18/10
f 7/12/7 3/11/3 12/19/12 9/17/9
f 10/18/10 9/17/9 11/20/11 23/21/23
f 9/17/9 12/19/12 14/22/14 11/20/11
f 3/8/3 97/7/97 13/23/13 12/24/12
f 12/24/12 13/23/13 15/25/15 14/26/14
f 14/26/14 15/25/15 17/27/17 16/28/16
f 11/20/11 14/22/14 16/29/16 18/30/18
f 16/31/16 17/32/17 19/33/19 18/34/18
f 18/34/18 19/33/19 21/35/21 20/36/20
f 23/21/23 11/20/11 18/30/18 20/37/20
f 20/36/20 21/35/21 86/38/86 22/39/22
f 24/40/24 23/21/23 20/37/20 22/41/22
f 26/42/26 10/18/10 23/21/23 24/40/24
f 25/43/25 24/40/24 22/41/22 96/44/96
f 27/45/27 26/42/26 24/40/24 25/43/25
f 29/46/29 28/47/28 26/42/26 27/45/27
f 28/47/28 8/14/8 10/18/10 26/42/26
f 31/48/31 30/49/30 28/47/28 29/46/29
f 30/49/30 5/13/5 8/14/8 28/47/28
f 31/50/31 33/51/33 32/52/32 30/53/30
f 30/53/30 32/52/32 34/16/34 5/15/5
f 33/51/33 36/54/36 35/55/35 32/52/32
f 32/52/32 35/55/35 37/56/37 34/16/34
f 36/54/36 39/57/39 38/58/38 35/55/35
f 35/55/35 38/58/38 40/59/40 37/56/37
f 39/57/39 42/60/42 41/61/41 38/58/38
f 38/58/38 41/61/41 43/62/43 40/59/40
f 41/63/41 42/64/42 47/65/47 44/66/44
f 43/67/43 41/63/41 44/66/44 45/68/45
f 45/68/45 44/66/44 46/69/46 68/70/68
f 44/66/44 47/65/47 49/71/49 46/69/46
f 48/72/48 47/73/47 42/74/42 39/75/39
f 50/76/50 49/77/49 47/73/47 48/72/48
f 52/78/52 51/79/51 49/77/49 50/76/50
f 46/69/46 49/71/49 51/80/51 54/81/54
f 89/82/89 53/83/53 51/79/51 52/78/52
f 54/81/54 51/80/51 53/84/53 56/85/56
f 55/86/55 54/81/54 56/85/56 58/87/58
f 68/70/68 46/69/46 54/81/54 55/86/55
f 57/88/57 56/89/56 53/90/53 89/91/89
f 59/92/59 58/93/58 56/89/56 57/88/57
f 61/94/61 60/95/60 58/93/58 59/92/59
f 63/96/63 55/86/55 58/87/58 60/97/60
f 81/98/81 62/99/62 60/95/60 61/94/61
f 64/100/64 63/96/63 60/97/60 62/101/62
f 66/102/66 65/103/65 63/96/63 64/100/64
f 65/103/65 68/70/68 55/86/55 63/96/63
f 69/104/69 67/105/67 65/103/65 66/102/66
f 67/105/67 45/68/45 68/70/68 65/103/65
f 72/106/72 70/107/70 67/105/67 69/104/69
f 70/107/70 43/67/43 45/68/45 67/105/67
f 71/108/71 70/109/70 72/110/72 73/111/73
f 40/59/40 43/62/43 70/109/70 71/108/71
f 73/112/73 72/113/72 69/114/69 75/115/75
f 98/116/98 71/108/71 73/111/73 74/117/74
f 74/118/74 73/112/73 75/115/75 76/119/76
f 76/119/76 75/115/75 77/120/77 78/121/78
f 75/115/75 69/114/69 66/122/66 77/120/77
f 78/121/78 77/120/77 79/123/79 80/124/80
f 77/120/77 66/122/66 64/125/64 79/123/79
f 80/124/80 79/123/79 81/126/81 82/127/82
f 79/123/79 64/125/64 62/128/62 81/126/81
f 82/129/82 81/98/81 61/94/61 83/130/83
f 17/32/17 82/129/82 83/130/83 19/33/19
f 15/25/15 80/124/80 82/127/82 17/27/17
f 19/33/19 83/130/83 84/131/84 21/35/21
f 83/130/83 61/94/61 59/92/59 84/131/84
f 21/35/21 84/131/84 85/132/85 86/38/86
f 84/131/84 59/92/59 57/88/57 85/132/85
f 86/38/86 85/132/85 87/133/87 88/134/88
f 85/132/85 57/88/57 89/91/89 87/133/87
f 88/135/88 87/136/87 90/137/90 91/138/91
f 87/136/87 89/82/89 52/78/52 90/137/90
f 91/138/91 90/137/90 92/139/92 93/140/93
f 90/137/90 52/78/52 50/76/50 92/139/92
f 93/140/93 92/139/92 94/141/94 95/142/95
f 92/139/92 50/76/50 48/72/48 94/141/94
f 95/142/95 94/141/94 36/143/36 33/144/33
f 94/141/94 48/72/48 39/75/39 36/143/36
f 29/145/29 95/142/95 33/144/33 31/146/31
f 27/147/27 93/140/93 95/142/95 29/145/29
f 25/148/25 91/138/91 93/140/93 27/147/27
f 96/149/96 88/135/88 91/138/91 25/148/25
f 22/39/22 86/38/86 88/134/88 96/150/96
f 13/23/13 78/121/78 80/124/80 15/25/15
f 97/7/97 76/119/76 78/121/78 13/23/13
f 2/6/2 74/118/74 76/119/76 97/7/97
f 6/2/6 98/116/98 74/117/74 2/3/2
f 34/16/34 37/56/37 98/116/98 6/2/6
f 37/56/37 40/59/40 71/108/71 98/116/98
