# Blender 4.3.2
# www.blender.org
o Cylinder.002
v 0.237264 0.572805 0.395827
v 0.572805 0.237264 0.395827
v 0.572805 -0.237264 0.395827
v 0.237264 -0.572805 0.395827
v 0.237264 0.572805 0.000000
v 0.572805 0.237264 0.000000
v 0.572805 -0.237264 0.000000
v 0.237264 -0.572805 0.000000
v 0.210271 0.087097 0.623758
v 0.087097 0.210271 0.623758
v 0.210271 -0.087097 0.623758
v 0.087097 -0.210271 0.623758
v 0.325084 0.134654 0.623758
v 0.134654 0.325084 0.623758
v 0.325084 -0.134654 0.623758
v 0.134654 -0.325084 0.623758
v 0.210271 0.087097 0.774012
v 0.087097 0.210271 0.774012
v 0.210271 -0.087097 0.774012
v 0.087097 -0.210271 0.774012
v 0.237264 0.572805 0.197914
v 0.572805 0.237264 0.197914
v 0.572805 -0.237264 0.197914
v 0.237264 -0.572805 0.197914
v 0.667461 0.200567 0.197914
v 0.667461 0.200567 0.000000
v 0.667461 -0.200567 0.197914
v 0.667461 -0.200567 0.000000
v 0.000000 0.572805 0.395827
v 0.000000 0.572805 0.000000
v 0.000000 0.325084 0.623758
v 0.000000 0.210271 0.623758
v 0.000000 0.210271 0.774012
v 0.000000 0.572805 0.197914
v 0.000000 -0.572805 0.395827
v 0.000000 -0.572805 0.000000
v 0.000000 -0.325084 0.623758
v 0.000000 -0.210271 0.623758
v 0.000000 -0.210271 0.774012
v 0.000000 -0.572805 0.197914
v -0.237264 0.572805 0.395827
v -0.572805 0.237264 0.395827
v -0.572805 -0.237264 0.395827
v -0.237264 -0.572805 0.395827
v -0.237264 0.572805 0.000000
v -0.572805 0.237264 0.000000
v -0.572805 -0.237264 0.000000
v -0.237264 -0.572805 0.000000
v -0.210271 0.087097 0.623758
v -0.087097 0.210271 0.623758
v -0.210271 -0.087097 0.623758
v -0.087097 -0.210271 0.623758
v -0.325084 0.134654 0.623758
v -0.134654 0.325084 0.623758
v -0.325084 -0.134654 0.623758
v -0.134654 -0.325084 0.623758
v -0.210271 0.087097 0.774012
v -0.087097 0.210271 0.774012
v -0.210271 -0.087097 0.774012
v -0.087097 -0.210271 0.774012
v -0.237264 0.572805 0.197914
v -0.572805 0.237264 0.197914
v -0.572805 -0.237264 0.197914
v -0.237264 -0.572805 0.197914
v -0.667461 0.200567 0.197914
v -0.667461 0.200567 0.000000
v -0.667461 -0.200567 0.197914
v -0.667461 -0.200567 0.000000
v 0.237264 0.572805 -0.395827
v 0.572805 0.237264 -0.395827
v 0.572805 -0.237264 -0.395827
v 0.237264 -0.572805 -0.395827
v 0.210271 0.087097 -0.623758
v 0.087097 0.210271 -0.623758
v 0.210271 -0.087097 -0.623758
v 0.087097 -0.210271 -0.623758
v 0.325084 0.134654 -0.623758
v 0.134654 0.325084 -0.623758
v 0.325084 -0.134654 -0.623758
v 0.134654 -0.325084 -0.623758
v 0.210271 0.087097 -0.774012
v 0.087097 0.210271 -0.774012
v 0.210271 -0.087097 -0.774012
v 0.087097 -0.210271 -0.774012
v 0.237264 0.572805 -0.197914
v 0.572805 0.237264 -0.197914
v 0.572805 -0.237264 -0.197914
v 0.237264 -0.572805 -0.197914
v 0.667461 0.200567 -0.197914
v 0.667461 -0.200567 -0.197914
v 0.000000 0.572805 -0.395827
v 0.000000 0.325084 -0.623758
v 0.000000 0.210271 -0.623758
v 0.000000 0.210271 -0.774012
v 0.000000 0.572805 -0.197914
v 0.000000 -0.572805 -0.395827
v 0.000000 -0.325084 -0.623758
v 0.000000 -0.210271 -0.623758
v 0.000000 -0.210271 -0.774012
v 0.000000 -0.572805 -0.197914
v -0.237264 0.572805 -0.395827
v -0.572805 0.237264 -0.395827
v -0.572805 -0.237264 -0.395827
v -0.237264 -0.572805 -0.395827
v -0.210271 0.087097 -0.623758
v -0.087097 0.210271 -0.623758
v -0.210271 -0.087097 -0.623758
v -0.087097 -0.210271 -0.623758
v -0.325084 0.134654 -0.623758
v -0.134654 0.325084 -0.623758
v -0.325084 -0.134654 -0.623758
v -0.134654 -0.325084 -0.623758
v -0.210271 0.087097 -0.774012
v -0.087097 0.210271 -0.774012
v -0.210271 -0.087097 -0.774012
v -0.087097 -0.210271 -0.774012
v -0.237264 0.572805 -0.197914
v -0.572805 0.237264 -0.197914
v -0.572805 -0.237264 -0.197914
v -0.237264 -0.572805 -0.197914
v -0.667461 0.200567 -0.197914
v -0.667461 -0.200567 -0.197914
vn 0.7071 0.7071 -0.0000
vn 1.0000 -0.0000 -0.0000
vn 0.7071 -0.7071 -0.0000
vn 0.4788 -0.4788 0.7359
vn -0.0000 1.0000 -0.0000
vn -0.0000 -0.6771 0.7359
vn 0.6771 -0.0000 0.7359
vn 0.4788 0.4788 0.7359
vn -0.0000 -0.0000 1.0000
vn -0.0000 -1.0000 -0.0000
vn -0.0000 -0.0000 -1.0000
vn 0.3615 0.9324 -0.0000
vn 0.3615 -0.9324 -0.0000
vn -0.0000 0.6771 0.7359
vn -0.7071 0.7071 -0.0000
vn -1.0000 -0.0000 -0.0000
vn -0.7071 -0.7071 -0.0000
vn -0.4788 -0.4788 0.7359
vn -0.6771 -0.0000 0.7359
vn -0.4788 0.4788 0.7359
vn -0.3615 0.9324 -0.0000
vn -0.3615 -0.9324 -0.0000
vn 0.4788 -0.4788 -0.7359
vn -0.0000 -0.6771 -0.7359
vn 0.6771 -0.0000 -0.7359
vn 0.4788 0.4788 -0.7359
vn -0.0000 0.6771 -0.7359
vn -0.4788 -0.4788 -0.7359
vn -0.6771 -0.0000 -0.7359
vn -0.4788 0.4788 -0.7359
vt 1.000000 0.875000
vt 1.000000 1.000000
vt 0.875000 1.000000
vt 0.875000 0.875000
vt 0.750000 1.000000
vt 0.750000 0.875000
vt 0.625000 1.000000
vt 0.625000 0.875000
vt 0.062500 0.875000
vt 0.062500 1.000000
vt 0.000000 1.000000
vt 0.000000 0.875000
vt 0.562500 1.000000
vt 0.250000 0.405237
vt 0.359769 0.359769
vt 0.419706 0.419706
vt 0.250000 0.490000
vt 0.405237 0.250000
vt 0.490000 0.250000
vt 0.359769 0.140231
vt 0.419706 0.080294
vt 0.195116 0.382503
vt 0.165147 0.454853
vt 0.304884 0.117497
vt 0.062500 0.750000
vt 0.000000 0.750000
vt 0.750000 0.750000
vt 0.625000 0.750000
vt 0.000000 0.000000
vt 1.000000 0.750000
vt 0.875000 0.750000
vt 0.562500 0.875000
vt 0.562500 0.750000
vt 0.334853 0.045147
s 0
f 21/1/1 1/2/1 2/3/1 22/4/1
f 22/4/2 2/3/2 3/5/2 23/6/2
f 23/6/3 3/5/3 4/7/3 24/8/3
f 4/7/4 3/5/4 15/5/4 16/7/4
f 34/9/5 29/10/5 1/11/5 21/12/5
f 35/13/6 4/7/6 16/7/6 37/13/6
f 3/5/7 2/3/7 13/3/7 15/5/7
f 2/3/8 1/2/8 14/2/8 13/3/8
f 10/14/9 9/15/9 13/16/9 14/17/9
f 9/15/9 11/18/9 15/19/9 13/16/9
f 11/18/9 12/20/9 16/21/9 15/19/9
f 32/22/9 10/14/9 14/17/9 31/23/9
f 38/24/10 12/20/10 20/20/10 39/24/10
f 11/18/2 9/15/2 17/15/2 19/18/2
f 12/20/3 11/18/3 19/18/3 20/20/3
f 9/15/1 10/14/1 18/14/1 17/15/1
f 30/25/5 34/9/5 21/12/5 5/26/5
f 7/27/3 23/6/3 24/8/3 8/28/3
f 7/29/11 6/29/11 26/29/11 28/29/11
f 5/30/1 21/1/1 22/4/1 6/31/1
f 26/31/2 25/4/2 27/6/2 28/27/2
f 6/31/12 22/4/12 25/4/12 26/31/12
f 22/4/9 23/6/9 27/6/9 25/4/9
f 23/6/13 7/27/13 28/27/13 27/6/13
f 10/14/5 32/22/5 33/22/5 18/14/5
f 1/11/14 29/10/14 31/10/14 14/11/14
f 8/28/10 24/8/10 40/32/10 36/33/10
f 12/20/9 38/24/9 37/34/9 16/21/9
f 24/8/10 4/7/10 35/13/10 40/32/10
f 17/15/9 18/14/9 33/22/9 39/24/9 20/20/9 19/18/9
f 61/1/15 62/4/15 42/3/15 41/2/15
f 62/4/16 63/6/16 43/5/16 42/3/16
f 63/6/17 64/8/17 44/7/17 43/5/17
f 44/7/18 56/7/18 55/5/18 43/5/18
f 34/9/5 61/12/5 41/11/5 29/10/5
f 35/13/6 37/13/6 56/7/6 44/7/6
f 43/5/19 55/5/19 53/3/19 42/3/19
f 42/3/20 53/3/20 54/2/20 41/2/20
f 50/14/9 54/17/9 53/16/9 49/15/9
f 49/15/9 53/16/9 55/19/9 51/18/9
f 51/18/9 55/19/9 56/21/9 52/20/9
f 32/22/9 31/23/9 54/17/9 50/14/9
f 38/24/10 39/24/10 60/20/10 52/20/10
f 51/18/16 59/18/16 57/15/16 49/15/16
f 52/20/17 60/20/17 59/18/17 51/18/17
f 49/15/15 57/15/15 58/14/15 50/14/15
f 30/25/5 45/26/5 61/12/5 34/9/5
f 47/27/17 48/28/17 64/8/17 63/6/17
f 47/29/11 68/29/11 66/29/11 46/29/11
f 45/30/15 46/31/15 62/4/15 61/1/15
f 66/31/16 68/27/16 67/6/16 65/4/16
f 46/31/21 66/31/21 65/4/21 62/4/21
f 62/4/9 65/4/9 67/6/9 63/6/9
f 63/6/22 67/6/22 68/27/22 47/27/22
f 50/14/5 58/14/5 33/22/5 32/22/5
f 41/11/14 54/11/14 31/10/14 29/10/14
f 48/28/10 36/33/10 40/32/10 64/8/10
f 52/20/9 56/21/9 37/34/9 38/24/9
f 64/8/10 40/32/10 35/13/10 44/7/10
f 57/15/9 59/18/9 60/20/9 39/24/9 33/22/9 58/14/9
f 85/1/1 86/4/1 70/3/1 69/2/1
f 86/4/2 87/6/2 71/5/2 70/3/2
f 87/6/3 88/8/3 72/7/3 71/5/3
f 72/7/23 80/7/23 79/5/23 71/5/23
f 95/9/5 85/12/5 69/11/5 91/10/5
f 96/13/24 97/13/24 80/7/24 72/7/24
f 71/5/25 79/5/25 77/3/25 70/3/25
f 70/3/26 77/3/26 78/2/26 69/2/26
f 74/14/11 78/17/11 77/16/11 73/15/11
f 73/15/11 77/16/11 79/19/11 75/18/11
f 75/18/11 79/19/11 80/21/11 76/20/11
f 93/22/11 92/23/11 78/17/11 74/14/11
f 98/24/10 99/24/10 84/20/10 76/20/10
f 75/18/2 83/18/2 81/15/2 73/15/2
f 76/20/3 84/20/3 83/18/3 75/18/3
f 73/15/1 81/15/1 82/14/1 74/14/1
f 30/25/5 5/26/5 85/12/5 95/9/5
f 7/27/3 8/28/3 88/8/3 87/6/3
f 5/30/1 6/31/1 86/4/1 85/1/1
f 26/31/2 28/27/2 90/6/2 89/4/2
f 6/31/12 26/31/12 89/4/12 86/4/12
f 86/4/11 89/4/11 90/6/11 87/6/11
f 87/6/13 90/6/13 28/27/13 7/27/13
f 74/14/5 82/14/5 94/22/5 93/22/5
f 69/11/27 78/11/27 92/10/27 91/10/27
f 8/28/10 36/33/10 100/32/10 88/8/10
f 76/20/11 80/21/11 97/34/11 98/24/11
f 88/8/10 100/32/10 96/13/10 72/7/10
f 81/15/11 83/18/11 84/20/11 99/24/11 94/22/11 82/14/11
f 117/1/15 101/2/15 102/3/15 118/4/15
f 118/4/16 102/3/16 103/5/16 119/6/16
f 119/6/17 103/5/17 104/7/17 120/8/17
f 104/7/28 103/5/28 111/5/28 112/7/28
f 95/9/5 91/10/5 101/11/5 117/12/5
f 96/13/24 104/7/24 112/7/24 97/13/24
f 103/5/29 102/3/29 109/3/29 111/5/29
f 102/3/30 101/2/30 110/2/30 109/3/30
f 106/14/11 105/15/11 109/16/11 110/17/11
f 105/15/11 107/18/11 111/19/11 109/16/11
f 107/18/11 108/20/11 112/21/11 111/19/11
f 93/22/11 106/14/11 110/17/11 92/23/11
f 98/24/10 108/20/10 116/20/10 99/24/10
f 107/18/16 105/15/16 113/15/16 115/18/16
f 108/20/17 107/18/17 115/18/17 116/20/17
f 105/15/15 106/14/15 114/14/15 113/15/15
f 30/25/5 95/9/5 117/12/5 45/26/5
f 47/27/17 119/6/17 120/8/17 48/28/17
f 45/30/15 117/1/15 118/4/15 46/31/15
f 66/31/16 121/4/16 122/6/16 68/27/16
f 46/31/21 118/4/21 121/4/21 66/31/21
f 118/4/11 119/6/11 122/6/11 121/4/11
f 119/6/22 47/27/22 68/27/22 122/6/22
f 106/14/5 93/22/5 94/22/5 114/14/5
f 101/11/27 91/10/27 92/10/27 110/11/27
f 48/28/10 120/8/10 100/32/10 36/33/10
f 108/20/11 98/24/11 97/34/11 112/21/11
f 120/8/10 104/7/10 96/13/10 100/32/10
f 113/15/11 114/14/11 94/22/11 99/24/11 116/20/11 115/18/11
