# Blender 4.3.2
# www.blender.org
o Cube.001
v -1.437148 -1.000000 0.864141
v -1.153811 1.388576 0.864141
v 0.392850 -0.894761 0.910052
v 0.392850 1.315718 0.910052
v -0.541375 -1.000000 1.000000
v -0.585336 1.361797 1.000000
v -1.449291 0.210479 0.864141
v 0.392850 0.210479 0.910052
v -0.563356 0.180899 1.000000
v 1.396671 -0.713565 0.714002
v 1.396671 0.711304 0.714002
v 1.396671 0.189116 0.714002
v -1.437148 -1.000000 0.000000
v -1.153811 1.388576 0.000000
v 0.392850 -0.894761 0.000000
v 0.392850 1.315718 0.000000
v -0.585336 1.361797 0.000000
v -0.541375 -1.000000 0.000000
v -1.449291 0.210479 0.000000
v 1.396671 -0.713565 0.000000
v 1.396671 0.711304 0.000000
v -0.937949 1.375186 1.000000
v -0.937949 -1.000000 1.000000
v -0.937949 0.195689 1.000000
v -0.937949 -1.000000 0.000000
v -0.937949 1.375186 0.000000
v -1.437148 -1.000000 -0.864141
v -1.153811 1.388576 -0.864141
v 0.392850 -0.894761 -0.910052
v 0.392850 1.315718 -0.910052
v -0.541375 -1.000000 -1.000000
v -0.585336 1.361797 -1.000000
v -1.449291 0.210479 -0.864141
v 0.392850 0.210479 -0.910052
v -0.563356 0.180899 -1.000000
v 1.396671 -0.713565 -0.714002
v 1.396671 0.711304 -0.714002
v 1.396671 0.189116 -0.714002
v -0.937949 1.375186 -1.000000
v -0.937949 -1.000000 -1.000000
v -0.937949 0.195689 -1.000000
v 1.396671 0.821903 0.000000
v 1.396671 0.821903 0.803238
v 1.396671 0.210479 0.803238
v 1.396671 -0.781426 0.803238
v 1.396671 -0.781426 0.000000
v 1.396671 0.821903 -0.803238
v 1.396671 0.210479 -0.803238
v 1.396671 -0.781426 -0.803238
v 2.000597 0.184302 0.000000
v 2.000597 0.184302 0.714002
v 2.000597 -0.718379 0.000000
v 2.000597 0.706490 0.000000
v 2.000597 0.184302 -0.714002
v 2.000597 0.706490 0.714002
v 2.000597 -0.718379 0.714002
v 2.000597 0.706490 -0.714002
v 2.000597 -0.718379 -0.714002
vn -0.2545 0.0638 0.9650
vn 0.1119 -0.9937 -0.0000
vn 0.0619 0.9981 -0.0000
vn 0.0471 0.9989 -0.0000
vn -0.0000 -1.0000 -0.0000
vn 0.0937 -0.0000 0.9956
vn 0.0956 0.0018 0.9954
vn -0.2626 -0.0000 0.9649
vn 0.4414 0.8973 -0.0000
vn -0.0000 -0.0000 -1.0000
vn -0.0080 -1.0000 -0.0000
vn 0.1058 -0.0000 0.9944
vn 0.1122 -0.9937 -0.0000
vn -0.9999 -0.0100 -0.0000
vn -0.9700 0.2433 -0.0000
vn -0.0000 -0.0000 1.0000
vn 0.0379 0.9993 -0.0000
vn -0.5327 -0.0000 -0.8463
vn 0.0937 -0.0000 -0.9956
vn -0.2626 -0.0000 -0.9649
vn 0.0080 1.0000 -0.0000
vn 0.1058 -0.0000 -0.9944
vn 1.0000 -0.0000 -0.0000
vn -0.5327 -0.0000 0.8463
vn 0.0916 0.0017 0.9958
vn -0.2569 -0.0026 0.9664
vn -0.2545 0.0638 -0.9650
vn 0.0916 0.0017 -0.9958
vn 0.0956 0.0018 -0.9954
vn -0.2569 -0.0026 -0.9664
s 0
f 24//1 2//1 7//1
f 18//2 3//2 5//2
f 26//3 2//3 22//3
f 17//4 4//4 16//4
f 18//5 23//5 25//5
f 4//6 9//6 8//6
f 3//7 9//7 5//7
f 24//8 1//8 23//8
f 16//9 43//9 42//9
f 36//10 54//10 58//10
f 36//11 52//11 20//11
f 8//12 45//12 44//12
f 8//12 43//12 4//12
f 15//13 45//13 3//13
f 7//14 13//14 1//14
f 2//15 19//15 7//15
f 9//16 23//16 5//16
f 25//5 1//5 13//5
f 26//17 6//17 17//17
f 6//16 24//16 9//16
f 41//18 28//18 39//18
f 18//2 29//2 15//2
f 26//3 28//3 14//3
f 30//4 17//4 16//4
f 40//5 18//5 25//5
f 35//19 30//19 34//19
f 29//19 35//19 34//19
f 27//20 41//20 40//20
f 16//9 47//9 30//9
f 11//21 53//21 21//21
f 12//16 55//16 11//16
f 34//22 49//22 29//22
f 47//22 34//22 30//22
f 49//13 15//13 29//13
f 13//14 33//14 27//14
f 19//15 28//15 33//15
f 40//10 35//10 31//10
f 27//5 25//5 13//5
f 32//17 26//17 17//17
f 41//10 32//10 35//10
f 11//23 42//23 43//23
f 10//23 44//23 45//23
f 11//23 44//23 12//23
f 10//23 46//23 20//23
f 37//23 42//23 21//23
f 36//23 48//23 38//23
f 37//23 48//23 47//23
f 36//23 46//23 49//23
f 53//23 51//23 50//23
f 50//23 56//23 52//23
f 54//23 53//23 50//23
f 58//23 50//23 52//23
f 20//11 56//11 10//11
f 10//16 51//16 12//16
f 38//10 57//10 54//10
f 21//21 57//21 37//21
f 24//24 22//24 2//24
f 18//2 15//2 3//2
f 26//3 14//3 2//3
f 17//4 6//4 4//4
f 18//5 5//5 23//5
f 4//25 6//25 9//25
f 3//6 8//6 9//6
f 24//26 7//26 1//26
f 16//9 4//9 43//9
f 36//10 38//10 54//10
f 36//11 58//11 52//11
f 8//12 3//12 45//12
f 8//12 44//12 43//12
f 15//13 46//13 45//13
f 7//14 19//14 13//14
f 2//15 14//15 19//15
f 9//16 24//16 23//16
f 25//5 23//5 1//5
f 26//17 22//17 6//17
f 6//16 22//16 24//16
f 41//27 33//27 28//27
f 18//2 31//2 29//2
f 26//3 39//3 28//3
f 30//4 32//4 17//4
f 40//5 31//5 18//5
f 35//28 32//28 30//28
f 29//29 31//29 35//29
f 27//30 33//30 41//30
f 16//9 42//9 47//9
f 11//21 55//21 53//21
f 12//16 51//16 55//16
f 34//22 48//22 49//22
f 47//22 48//22 34//22
f 49//13 46//13 15//13
f 13//14 19//14 33//14
f 19//15 14//15 28//15
f 40//10 41//10 35//10
f 27//5 40//5 25//5
f 32//17 39//17 26//17
f 41//10 39//10 32//10
f 11//23 21//23 42//23
f 10//23 12//23 44//23
f 11//23 43//23 44//23
f 10//23 45//23 46//23
f 37//23 47//23 42//23
f 36//23 49//23 48//23
f 37//23 38//23 48//23
f 36//23 20//23 46//23
f 53//23 55//23 51//23
f 50//23 51//23 56//23
f 54//23 57//23 53//23
f 58//23 54//23 50//23
f 20//11 52//11 56//11
f 10//16 56//16 51//16
f 38//10 37//10 57//10
f 21//21 53//21 57//21
