# Blender 4.3.1
# www.blender.org
mtllib asteroid1.mtl
o asteroid_model_1.001
v -0.273751 -0.384486 -0.058268
v -0.298751 -0.427059 0.085556
v -0.401864 -0.287763 0.255784
v -0.440734 -0.276839 0.438425
v -0.420359 -0.120589 0.500260
v -0.361511 0.122484 0.330700
v -0.447579 0.384311 0.387629
v -0.433895 0.393615 0.017733
v -0.192985 0.257603 -0.254021
v -0.502450 0.024917 -0.458497
v -0.247596 -0.196729 -0.197903
v 0.122447 -0.408972 -0.348984
v -0.081234 -0.326367 -0.286323
v -0.250710 -0.251262 -0.415548
v -0.125432 0.350257 -0.454945
v 0.247724 0.219116 -0.158076
v 0.267453 0.206533 -0.438253
v 0.496987 0.092029 -0.418216
v 0.532978 -0.041870 -0.451631
v 0.285396 -0.278760 -0.384493
v 0.265069 -0.467329 0.149989
v 0.447566 -0.328182 0.061007
v 0.356109 -0.404987 -0.057627
v 0.221733 -0.236129 -0.172334
v 0.297501 0.457646 0.032379
v 0.461027 0.361357 0.153365
v 0.396142 0.013011 0.393222
v 0.426422 -0.119291 0.333477
v 0.216002 -0.230931 0.270944
v -0.128676 -0.337257 0.432564
v 0.100310 -0.413768 0.314968
v 0.212334 0.394879 0.417823
v -0.040041 0.395230 0.398968
v -0.320215 0.499645 0.421486
v -0.412203 0.070223 0.292902
v -0.573162 0.344133 0.324599
v -0.389816 -0.103284 0.140381
v -0.467560 -0.311913 -0.004538
v -0.464927 0.100781 0.092676
v -0.551789 0.410255 0.180710
v -0.509519 -0.124788 -0.109071
v -0.523858 0.013865 -0.055795
v -0.308886 0.200613 -0.126521
v -0.508906 -0.009059 -0.216482
v -0.414938 0.043761 -0.541893
v -0.319767 0.267232 -0.457205
v -0.050386 -0.184868 -0.513527
v -0.305561 -0.046092 -0.489297
v 0.155896 -0.086763 -0.472503
v 0.016249 0.070780 -0.352813
v 0.370414 -0.051056 -0.494899
v 0.208591 0.213154 -0.463767
v 0.323187 -0.179887 -0.122274
v 0.541073 -0.054051 -0.278293
v 0.340456 -0.051596 0.034074
v 0.498657 0.120600 -0.155875
v 0.476587 0.212074 -0.061420
v 0.516159 0.177944 0.101545
v 0.496980 0.111684 0.198752
v 0.411352 -0.220237 0.228346
v 0.369790 0.173824 0.224035
v 0.191824 0.078009 0.319031
v 0.246565 0.241007 0.286689
v 0.013165 -0.225575 0.338080
v 0.179847 -0.125573 0.619684
v 0.181604 0.056137 0.670906
v 0.048008 0.166316 0.498988
v 0.078406 0.316807 0.430764
v -0.067254 -0.142872 0.523844
v -0.002898 0.048297 0.664660
v -0.114562 -0.085787 0.539968
v -0.051452 0.122524 0.405380
v -0.333545 -0.252746 0.549252
v -0.255718 -0.381743 -0.263880
v -0.221027 -0.609008 -0.188171
v 0.065095 -0.470905 -0.235529
v -0.133793 -0.673642 -0.067121
v 0.143862 -0.383514 -0.089026
v -0.236787 -0.618125 0.015822
v -0.002976 -0.530647 0.138843
v -0.203294 -0.312251 0.191547
v 0.032929 -0.493842 0.268419
v 0.137805 0.556935 -0.330406
v -0.035285 0.563359 -0.380607
v 0.071918 0.598219 -0.251323
v -0.222693 0.472331 -0.138406
v -0.274959 0.446072 -0.177179
v 0.193906 0.383431 -0.114763
v 0.101327 0.420046 -0.010753
v -0.437884 0.519679 0.146412
v -0.047503 0.378484 0.027910
v -0.140781 0.493243 0.294554
v 0.105787 0.494132 0.282712
vn -0.8390 -0.4104 -0.3573
vn -0.6091 -0.7023 0.3685
vn -0.7667 -0.6327 0.1088
vn -0.7850 -0.5742 0.2325
vn -0.7008 0.2694 0.6605
vn -0.3643 0.1059 0.9252
vn -0.3415 -0.0098 0.9398
vn -0.7875 0.2592 -0.5592
vn -0.8357 0.4997 -0.2279
vn -0.9088 -0.1522 -0.3885
vn -0.8276 -0.4261 -0.3654
vn 0.3329 -0.7700 -0.5443
vn -0.1364 -0.6574 -0.7411
vn -0.6282 -0.5842 -0.5138
vn -0.3014 0.3735 -0.8773
vn 0.5723 0.7487 -0.3346
vn 0.2147 0.7653 -0.6068
vn 0.6847 0.5055 -0.5251
vn 0.7793 -0.1704 -0.6030
vn 0.5154 -0.7778 -0.3597
vn 0.4415 -0.8601 0.2558
vn 0.9779 -0.2063 -0.0327
vn 0.5073 -0.6671 -0.5456
vn 0.6678 -0.6955 -0.2652
vn 0.3341 0.8868 -0.3193
vn 0.8392 0.4598 0.2904
vn 0.7473 0.3448 0.5681
vn 0.7574 -0.4082 0.5095
vn 0.3290 -0.6338 0.7000
vn 0.1069 -0.7755 0.6222
vn 0.4459 -0.3213 0.8354
vn 0.4261 0.3151 0.8480
vn -0.0137 0.3437 0.9390
vn -0.1473 0.6139 0.7756
vn -0.9308 -0.0983 0.3522
vn -0.8824 0.0744 0.4645
vn -0.9762 -0.0520 0.2104
vn -0.8307 -0.5287 -0.1744
vn -0.9703 -0.1655 0.1762
vn -0.9037 0.3832 -0.1910
vn -0.8507 -0.3910 -0.3513
vn -0.9837 0.1708 0.0568
vn -0.7137 0.3976 -0.5767
vn -0.9727 -0.0035 -0.2320
vn -0.3127 -0.1325 -0.9406
vn -0.3848 0.7697 -0.5094
vn -0.0323 -0.2059 -0.9780
vn -0.1755 -0.4136 -0.8934
vn -0.1602 0.4813 -0.8618
vn -0.0860 0.0935 -0.9919
vn 0.1813 -0.0975 -0.9786
vn 0.1634 0.3212 -0.9328
vn 0.8422 -0.4978 -0.2072
vn 0.9292 -0.3338 0.1589
vn 0.9514 -0.2990 -0.0738
vn 0.9598 0.2766 0.0479
vn 0.7209 0.6151 -0.3192
vn 0.9817 -0.0525 0.1832
vn 0.9498 0.1802 0.2558
vn 0.8302 -0.3568 0.4285
vn 0.4532 0.5152 0.7274
vn 0.5229 0.6025 0.6030
vn 0.5965 -0.1260 0.7927
vn 0.4340 -0.5010 0.7487
vn 0.2795 -0.6277 0.7266
vn 0.3702 0.3738 0.8504
vn -0.0580 0.7137 0.6980
vn 0.2569 0.1441 0.9556
vn 0.0862 -0.5792 0.8106
vn -0.4707 0.2681 0.8406
vn -0.3134 0.1067 0.9436
vn -0.5180 0.3613 0.7753
vn -0.2319 -0.4303 0.8724
vn -0.7598 -0.3499 -0.5480
vn -0.5191 -0.6478 -0.5576
vn 0.4711 -0.7592 -0.4490
vn 0.1340 -0.9906 -0.0273
vn 0.5202 -0.7949 -0.3121
vn -0.6383 -0.6728 0.3740
vn 0.0719 -0.9516 0.2989
vn -0.3118 -0.8424 0.4395
vn 0.0516 -0.8353 0.5474
vn 0.6237 0.6791 -0.3871
vn -0.2656 0.7550 -0.5995
vn 0.2035 0.9587 0.1987
vn -0.1902 0.9558 -0.2241
vn -0.3348 0.5270 -0.7811
vn 0.7480 0.6410 -0.1724
vn -0.0021 0.9965 0.0833
vn -0.4355 0.8911 -0.1271
vn 0.0881 0.9943 0.0593
vn 0.0789 0.9896 -0.1204
vn 0.1029 0.9786 0.1782
vt 0.661121 0.147764
vt 0.736419 0.187836
vt 0.654977 0.285054
vt 0.720199 0.265853
vt 0.810577 0.238600
vt 0.610124 0.054267
vt 0.651617 0.013313
vt 0.724249 0.109912
vt 0.784546 0.118936
vt 0.713238 0.000483
vt 0.821083 0.159835
vt 0.120926 0.833031
vt 0.107763 0.753885
vt 0.197746 0.766420
vt 0.843055 0.106157
vt 0.920695 0.267633
vt 0.936353 0.187120
vt 0.980348 0.266657
vt 0.107763 0.698324
vt 0.980348 0.146809
vt 0.642982 0.135971
vt 0.614299 0.240051
vt 0.238393 0.650620
vt 0.156716 0.653908
vt 0.162914 0.633218
vt 0.909539 0.904828
vt 0.878569 0.759337
vt 0.942697 0.759337
vt 0.479379 0.837189
vt 0.479379 0.704519
vt 0.534546 0.766287
vt 0.182057 0.887693
vt 0.187332 0.850627
vt 0.799631 0.293771
vt 0.905672 0.078687
vt 0.919728 0.000483
vt 0.919728 0.157703
vt 0.760458 0.699916
vt 0.780966 0.581277
vt 0.825254 0.649428
vt 0.000483 0.282540
vt 0.008833 0.248664
vt 0.064267 0.250215
vt 0.261482 0.411170
vt 0.297922 0.461392
vt 0.261482 0.484438
vt 0.878569 0.925252
vt 0.944932 0.905795
vt 0.944932 0.978635
vt 0.158706 0.221897
vt 0.274439 0.253170
vt 0.210838 0.287077
vt 0.404646 0.795435
vt 0.478412 0.743349
vt 0.435394 0.892179
vt 0.355413 0.340073
vt 0.423177 0.315566
vt 0.469676 0.413588
vt 0.517080 0.315372
vt 0.849887 0.410204
vt 0.889947 0.361819
vt 0.866742 0.456142
vt 0.314935 0.852781
vt 0.299208 0.782008
vt 0.385696 0.739348
vt 0.541237 0.344195
vt 0.299208 0.704519
vt 0.648254 0.812799
vt 0.685644 0.856729
vt 0.637700 0.851118
vt 0.299208 0.454677
vt 0.379401 0.475657
vt 0.760458 0.338088
vt 0.834662 0.315372
vt 0.641667 0.927490
vt 0.198713 0.725928
vt 0.229781 0.698324
vt 0.277246 0.769292
vt 0.146518 0.154159
vt 0.000483 0.175321
vt 0.036504 0.106692
vt 0.121360 0.485096
vt 0.056455 0.513089
vt 0.047137 0.445829
vt 0.449127 0.181001
vt 0.486724 0.250297
vt 0.406575 0.242622
vt 0.131094 0.522035
vt 0.216288 0.502370
vt 0.027322 0.544811
vt 0.044716 0.559023
vt 0.003699 0.648053
vt 0.412695 0.314406
vt 0.370527 0.301805
vt 0.058918 0.671228
vt 0.592459 0.113565
vt 0.549026 0.231619
vt 0.550800 0.095198
vt 0.729540 0.866493
vt 0.724646 0.927490
vt 0.106796 0.815636
vt 0.078166 0.862594
vt 0.038247 0.799182
vt 0.198164 0.411170
vt 0.179172 0.464386
vt 0.617138 0.293771
vt 0.346771 0.238239
vt 0.908166 0.498699
vt 0.967031 0.520584
vt 0.922193 0.579588
vt 0.389997 0.539048
vt 0.299927 0.531967
vt 0.877603 0.796513
vt 0.781746 0.782795
vt 0.828185 0.722861
vt 0.331849 0.570640
vt 0.368582 0.685237
vt 0.872082 0.846534
vt 0.833446 0.857438
vt 0.452292 0.630581
vt 0.760458 0.833904
vt 0.278708 0.829162
vt 0.201986 0.793940
vt 0.167226 0.934458
vt 0.107763 0.999517
vt 0.107763 0.907012
vt 0.395356 0.085138
vt 0.365134 0.167723
vt 0.328903 0.136161
vt 0.805470 0.935138
vt 0.760458 0.858405
vt 0.847500 0.959037
vt 0.397953 0.000483
vt 0.453684 0.016153
vt 0.967031 0.446150
vt 0.406809 0.165553
vt 0.666466 0.747653
vt 0.542203 0.680171
vt 0.642770 0.687092
vt 0.276720 0.648384
vt 0.261482 0.569201
vt 0.276720 0.560261
vt 0.636733 0.936602
vt 0.551299 0.909484
vt 0.636733 0.812799
vt 0.695060 0.443242
vt 0.687752 0.499006
vt 0.583897 0.447450
vt 0.640879 0.643668
vt 0.584543 0.538152
vt 0.742377 0.558876
vt 0.542203 0.606695
vt 0.381962 0.862770
vt 0.299208 0.959427
vt 0.302819 0.862770
vt 0.388192 0.944199
vt 0.479379 0.928376
vt 0.527662 0.894755
vt 0.527662 0.985091
vt 0.260516 0.598485
vt 0.260516 0.441878
vt 0.672613 0.371938
vt 0.634594 0.315372
vt 0.687780 0.645273
vt 0.943663 0.881006
vt 0.943663 0.759337
vt 0.991493 0.784416
vt 0.244988 0.697357
vt 0.989405 0.581277
vt 0.989405 0.708099
vt 0.951855 0.680432
vt 0.878569 0.739659
vt 0.884679 0.647005
vt 0.950888 0.684573
vt 0.927199 0.758370
vt 0.531961 0.893788
vt 0.131513 0.296912
vt 0.844022 0.121545
vt 0.888673 0.246781
vt 0.287018 0.176450
vt 0.248047 0.086488
vt 0.154140 0.060174
vt 0.175013 0.049921
vt 0.200237 0.150023
vt 0.082751 0.000483
vt 0.027489 0.036308
vt 0.151272 0.302073
vt 0.263629 0.025626
vt 0.296285 0.048534
vt 0.416441 0.905388
vt 0.177945 0.345978
vt 0.907199 0.524552
vt 0.877624 0.580310
vt 0.837400 0.547946
vt 0.760458 0.533090
vt 0.503450 0.070090
vt 0.609157 0.029456
vt 0.399706 0.439113
vt 0.403679 0.811433
vt 0.000483 0.699682
vt 0.054509 0.698324
vt 0.299208 0.326374
vt 0.404646 0.704519
vt 0.472797 0.121387
vt 0.395427 0.861803
vt 0.910526 0.327844
vt 0.979608 0.315372
vt 0.979608 0.445183
vt 0.908166 0.416688
vt 0.609157 0.238947
vt 0.054831 0.907972
vt 0.000483 0.843902
vt 0.000483 0.455854
vt 0.287289 0.293661
vt 0.244528 0.403495
vt 0.198713 0.969407
vt 0.260109 0.892272
vt 0.260109 0.982324
vt 0.298241 0.410203
vt 0.408889 0.703552
vt 0.198713 0.891305
vt 0.143969 0.888660
vt 0.847501 0.869546
vt 0.652963 0.644635
vt 0.548298 0.644635
vt 0.364644 0.181207
vt 0.299208 0.171939
vt 0.953905 0.145842
vt 0.920695 0.089168
vt 0.978423 0.114495
vt 0.978423 0.000483
vt 0.733522 0.407298
vt 0.759492 0.577404
vt 0.542203 0.852019
vt 0.688747 0.806732
vt 0.688747 0.644635
vt 0.746245 0.736967
vt 0.573268 0.811833
vt 0.878569 0.581277
vt 0.261482 0.559294
vt 0.261482 0.485404
vt 0.294761 0.513259
vt 0.542203 0.412116
s 1
usemtl Material.003
f 35/1/35 37/2/37 4/3/4
f 3/4/3 37/2/37 38/5/38
f 36/6/36 40/7/40 39/8/39
f 37/2/37 42/9/42 38/5/38
f 39/8/39 42/9/42 37/2/37
f 39/8/39 8/10/8 42/9/42
f 42/9/42 41/11/41 38/5/38
f 38/12/38 41/13/41 11/14/11
f 42/9/42 44/15/44 41/11/41
f 42/16/42 43/17/43 44/18/44
f 41/13/41 44/19/44 11/14/11
f 43/17/43 9/20/9 44/18/44
f 6/21/6 35/1/35 5/22/5
f 7/23/7 35/24/35 6/25/6
f 44/26/44 9/27/9 46/28/46
f 44/29/44 46/30/46 10/31/10
f 2/32/2 38/12/38 1/33/1
f 3/4/3 38/5/38 2/34/2
f 49/35/49 51/36/51 47/37/47
f 11/38/11 48/39/48 14/40/14
f 10/41/10 45/42/45 48/43/48
f 46/44/46 45/45/45 10/46/10
f 9/47/9 15/48/15 46/49/46
f 47/50/47 12/51/12 13/52/13
f 16/53/16 57/54/57 17/55/17
f 54/56/54 56/57/56 55/58/55
f 56/57/56 58/59/58 55/58/55
f 57/60/57 58/61/58 56/62/56
f 53/63/53 55/64/55 60/65/60
f 58/59/58 59/66/59 55/58/55
f 59/67/59 60/65/60 55/64/55
f 58/68/58 61/69/61 59/70/59
f 20/71/20 54/56/54 24/72/24
f 57/60/57 25/73/25 26/74/26
f 61/69/61 27/75/27 59/70/59
f 24/76/24 53/77/53 23/78/23
f 50/79/50 45/42/45 46/80/46 15/81/15
f 67/82/67 70/83/70 66/84/66
f 64/85/64 69/86/69 30/87/30
f 67/82/67 72/88/72 70/83/70
f 33/89/33 72/88/72 67/82/67
f 69/90/69 71/91/71 73/92/73
f 33/89/33 6/25/6 72/88/72
f 73/93/73 4/94/4 30/87/30
f 71/91/71 6/25/6 5/95/5
f 27/96/27 65/97/65 28/98/28
f 61/69/61 63/99/63 62/100/62
f 32/101/32 68/102/68 63/103/63
f 32/104/32 33/89/33 68/105/68
f 5/22/5 4/3/4 73/106/73
f 4/94/4 3/107/3 30/87/30
f 31/108/31 64/109/64 30/110/30
f 24/72/24 78/111/78 12/112/12
f 75/113/75 1/114/1 74/115/74
f 76/116/76 78/111/78 77/117/77
f 77/118/77 79/119/79 75/113/75
f 78/111/78 80/120/80 77/117/77
f 1/114/1 79/119/79 2/121/2
f 23/78/23 21/122/21 78/123/78
f 79/124/79 80/125/80 81/126/81
f 21/127/21 82/128/82 80/129/80
f 82/130/82 30/131/30 80/132/80
f 23/133/23 22/134/22 21/127/21
f 31/108/31 29/135/29 64/109/64
f 82/128/82 31/136/31 30/87/30
f 16/137/16 83/138/83 88/139/88
f 9/140/9 87/141/87 86/142/86
f 86/143/86 91/144/91 85/145/85
f 89/146/89 91/147/91 93/148/93
f 90/149/90 92/150/92 86/151/86
f 92/150/92 34/152/34 93/148/93
f 15/153/15 86/154/86 84/155/84
f 15/153/15 9/156/9 86/154/86
f 90/157/90 40/158/40 34/159/34
f 34/160/34 33/89/33 93/161/93
f 93/161/93 33/89/33 32/104/32
f 25/162/25 93/148/93 26/163/26
f 88/139/88 25/164/25 16/137/16
f 3/4/3 4/3/4 37/2/37
f 35/1/35 39/8/39 37/2/37
f 35/1/35 36/6/36 39/8/39
f 39/8/39 40/7/40 8/10/8
f 42/165/42 8/166/8 43/167/43
f 5/22/5 35/1/35 4/3/4
f 7/23/7 36/168/36 35/24/35
f 7/23/7 34/160/34 36/168/36
f 34/169/34 40/170/40 36/171/36
f 43/172/43 8/173/8 87/174/87
f 43/172/43 87/174/87 9/175/9
f 44/29/44 10/31/10 11/176/11
f 1/33/1 38/12/38 11/14/11
f 14/177/14 48/43/48 47/50/47
f 48/43/48 45/42/45 50/79/50
f 50/178/50 49/35/49 47/37/47 48/179/48
f 20/180/20 12/51/12 47/50/47 51/181/51
f 15/81/15 52/182/52 50/79/50
f 17/183/17 51/181/51 49/184/49 52/182/52
f 49/184/49 50/79/50 52/182/52
f 83/185/83 52/182/52 15/81/15 84/186/84
f 11/187/11 10/41/10 48/43/48
f 18/188/18 19/189/19 51/181/51 17/183/17
f 17/55/17 52/190/52 16/53/16
f 47/50/47 13/52/13 74/191/74 14/177/14
f 51/181/51 19/189/19 20/180/20
f 54/192/54 19/193/19 18/194/18 56/62/56
f 56/62/56 18/194/18 17/195/17 57/60/57
f 27/96/27 28/98/28 60/196/60 59/197/59
f 53/198/53 54/56/54 55/58/55
f 22/199/22 53/63/53 60/65/60
f 57/60/57 26/74/26 58/61/58
f 32/101/32 63/103/63 58/200/58 26/201/26
f 61/69/61 58/68/58 63/99/63
f 20/71/20 19/202/19 54/56/54
f 57/54/57 16/53/16 25/203/25
f 29/204/29 21/127/21 60/196/60 28/98/28
f 65/97/65 64/85/64 29/204/29 28/98/28
f 22/134/22 60/196/60 21/127/21
f 23/205/23 53/63/53 22/199/22
f 24/72/24 54/56/54 53/198/53
f 67/206/67 66/207/66 27/208/27 62/209/62
f 27/96/27 66/210/66 65/97/65
f 67/211/67 62/212/62 63/103/63 68/102/68
f 70/83/70 69/90/69 65/213/65 66/84/66
f 64/85/64 65/97/65 69/86/69
f 76/214/76 75/215/75 13/52/13 12/51/12
f 68/105/68 33/89/33 67/82/67
f 69/90/69 70/83/70 71/91/71
f 70/216/70 72/217/72 71/218/71
f 69/86/69 73/93/73 30/87/30
f 73/92/73 71/91/71 5/95/5
f 71/91/71 72/88/72 6/25/6
f 27/75/27 61/69/61 62/100/62
f 33/89/33 34/160/34 6/25/6
f 34/160/34 7/23/7 6/25/6
f 74/191/74 13/52/13 75/215/75
f 29/204/29 31/136/31 82/128/82 21/127/21
f 12/112/12 78/111/78 76/116/76
f 75/215/75 76/214/76 77/219/77
f 24/76/24 23/78/23 78/123/78
f 1/114/1 75/113/75 79/119/79
f 79/220/79 77/117/77 80/120/80
f 78/123/78 21/122/21 80/221/80
f 2/222/2 79/124/79 81/126/81
f 80/132/80 30/131/30 81/223/81
f 89/224/89 88/139/88 83/138/83 85/225/85
f 11/38/11 14/40/14 74/115/74
f 20/71/20 24/72/24 12/112/12
f 3/107/3 81/226/81 30/87/30
f 2/227/2 81/226/81 3/107/3
f 11/38/11 74/115/74 1/114/1
f 83/228/83 84/229/84 85/230/85
f 84/229/84 86/231/86 85/230/85
f 93/148/93 25/162/25 88/232/88 89/146/89
f 87/233/87 90/149/90 86/151/86
f 85/145/85 91/144/91 89/234/89
f 86/235/86 92/236/92 91/237/91
f 93/148/93 91/147/91 92/150/92
f 90/149/90 34/152/34 92/150/92
f 16/137/16 52/238/52 83/138/83
f 87/174/87 8/173/8 90/239/90
f 8/240/8 40/241/40 90/242/90
f 26/163/26 93/148/93 32/243/32
