# Blender 4.4.3
# www.blender.org
mtllib core_mini.001.mtl
o core_mini.001
v -4.527997 -0.170651 3.627506
v -4.490764 -0.364359 3.711717
v -4.421513 -0.118309 3.448839
v -4.578344 -0.011986 3.762751
v -4.565658 0.128270 3.897370
v -4.571022 -0.223929 3.921540
v -4.474816 0.117887 3.556346
v -4.457020 0.296032 3.699861
v -4.314233 0.199230 3.414059
v -4.288791 0.390258 3.557032
v -4.107665 0.242767 3.324153
v -4.280084 -0.065334 3.325767
v -4.183005 -0.328757 3.337593
v -4.108405 -0.011810 3.250824
v -3.985998 -0.246753 3.253257
v -3.901781 0.042347 3.231476
v -3.756461 -0.114597 3.247331
v -3.844041 0.237776 3.298364
v -3.618741 0.099975 3.319301
v -3.798704 0.389138 3.412334
v -3.546201 0.272453 3.452110
v -3.764104 0.502352 3.567061
v -4.073544 0.426466 3.457343
v -4.013930 0.553010 3.639227
v -3.920936 0.608676 3.880973
v -4.216331 0.523268 3.743145
v -4.084279 0.582743 3.983937
v -4.381082 0.428130 3.871421
v -4.234044 0.502177 4.078989
v -4.498407 0.252590 4.031447
v -4.368122 0.358501 4.164899
v -4.477286 0.086314 4.236615
v -4.303295 0.256127 4.341867
v -4.560785 -0.072643 4.093752
v -4.383145 -0.069423 4.376374
v -4.210379 0.134710 4.462613
v -4.467123 -0.243355 4.233982
v -4.230866 -0.217763 4.462719
v -4.093147 -0.003191 4.534689
v -4.303408 -0.390241 4.329911
v -4.005567 -0.355565 4.483656
v -3.947827 -0.160135 4.550545
v -4.050903 -0.506926 4.369686
v -3.741943 -0.360555 4.457868
v -3.776064 -0.544254 4.324677
v -3.535375 -0.317018 4.367961
v -3.741204 -0.105978 4.531198
v -3.863610 0.128965 4.528763
v -3.569525 -0.052454 4.456254
v -3.666603 0.210969 4.444427
v -3.428096 0.000521 4.333182
v -3.496459 0.253846 4.296571
v -3.321612 0.052863 4.154515
v -3.374792 -0.235675 4.225675
v -3.392588 -0.413820 4.082160
v -3.271265 -0.105802 4.019270
v -3.278587 0.106141 3.860480
v -3.283950 -0.246058 3.884651
v -3.288823 -0.045145 3.688268
v -3.351202 -0.370379 3.750573
v -3.372321 -0.204103 3.545405
v -3.481486 -0.476290 3.617121
v -3.468527 -0.545917 3.910599
v -3.615565 -0.619965 3.703032
v -3.633278 -0.641057 4.038876
v -3.765330 -0.700531 3.798084
v -3.835678 -0.670799 4.142793
v -3.560818 -0.508046 4.224988
v -3.928673 -0.726464 3.901047
v -4.085504 -0.620141 4.214960
v -4.324602 -0.528006 4.147645
v -4.107701 -0.689287 4.013151
v -4.280616 -0.623677 3.904540
v -4.406183 -0.513366 3.804443
v -4.106730 -0.675711 3.711555
v -4.246055 -0.552774 3.576931
v -3.925629 -0.646356 3.573751
v -4.063259 -0.517153 3.425614
v -3.739578 -0.550830 3.479361
v -3.862578 -0.422339 3.334413
v -3.546314 -0.373915 3.440154
v -3.639229 -0.252498 3.319408
v -3.466463 -0.048365 3.405647
v -3.382486 0.125567 3.548038
v -3.368560 0.275673 3.734732
v -3.525007 0.410218 3.634376
v -3.443424 0.395578 3.977577
v -3.568992 0.505889 3.877481
v -3.358845 0.246571 4.070303
v -3.603553 0.434985 4.205090
v -3.742879 0.557924 4.070466
v -3.786349 0.399365 4.356407
v -3.923980 0.528567 4.208270
v -3.987030 0.304551 4.447608
v -4.110030 0.433043 4.302659
v -3.741907 0.571499 3.768869
v -4.353149 -0.371634 3.485450
v -4.481048 -0.393461 4.047289
vn -0.9034 -0.1674 -0.3947
vn -0.8525 -0.4444 -0.2754
vn -0.7536 -0.0931 -0.6507
vn -0.9775 0.0587 -0.2025
vn -0.9599 0.2803 0.0095
vn -0.9681 -0.2468 0.0429
vn -0.8249 0.2621 -0.5009
vn -0.8016 0.5277 -0.2811
vn -0.5833 0.3796 -0.7181
vn -0.5452 0.6727 -0.5002
vn -0.2721 0.4502 -0.8505
vn -0.5321 -0.0096 -0.8466
vn -0.3902 -0.3973 -0.8306
vn -0.2604 0.0747 -0.9626
vn -0.0909 -0.2787 -0.9561
vn 0.0345 0.1516 -0.9878
vn 0.2420 -0.0721 -0.9676
vn 0.1170 0.4310 -0.8947
vn 0.4560 0.2375 -0.8577
vn 0.1889 0.6711 -0.7169
vn 0.5607 0.5005 -0.6596
vn 0.2429 0.8477 -0.4715
vn -0.2152 0.7271 -0.6519
vn -0.1309 0.9173 -0.3761
vn 0.0190 0.9995 -0.0233
vn -0.4336 0.8751 -0.2149
vn -0.2389 0.9610 0.1392
vn -0.6837 0.7293 -0.0265
vn -0.4742 0.8318 0.2886
vn -0.8516 0.4755 0.2207
vn -0.6640 0.6252 0.4102
vn -0.8270 0.2203 0.5173
vn -0.5730 0.4805 0.6639
vn -0.9543 -0.0148 0.2985
vn -0.6827 -0.0099 0.7307
vn -0.4277 0.2900 0.8561
vn -0.8123 -0.2763 0.5137
vn -0.4560 -0.2375 0.8577
vn -0.2420 0.0721 0.9676
vn -0.5607 -0.5005 0.6596
vn -0.1170 -0.4310 0.8947
vn -0.0345 -0.1516 0.9878
vn -0.1889 -0.6711 0.7169
vn 0.2721 -0.4502 0.8505
vn 0.2152 -0.7271 0.6519
vn 0.5833 -0.3796 0.7181
vn 0.2604 -0.0747 0.9626
vn 0.0909 0.2787 0.9561
vn 0.5321 0.0096 0.8466
vn 0.3902 0.3973 0.8306
vn 0.7536 0.0931 0.6507
vn 0.6437 0.4668 0.6065
vn 0.9034 0.1674 0.3947
vn 0.8249 -0.2621 0.5009
vn 0.8016 -0.5277 0.2811
vn 0.9775 -0.0587 0.2025
vn 0.9681 0.2468 -0.0429
vn 0.9599 -0.2803 -0.0095
vn 0.9543 0.0148 -0.2985
vn 0.8516 -0.4755 -0.2207
vn 0.8270 -0.2203 -0.5173
vn 0.6640 -0.6252 -0.4102
vn 0.6837 -0.7293 0.0265
vn 0.4742 -0.8318 -0.2886
vn 0.4336 -0.8751 0.2149
vn 0.2389 -0.9610 -0.1392
vn 0.1309 -0.9173 0.3761
vn 0.5452 -0.6727 0.5002
vn -0.0190 -0.9995 0.0233
vn -0.2429 -0.8477 0.4715
vn -0.5971 -0.7047 0.3833
vn -0.2739 -0.9442 0.1829
vn -0.5215 -0.8528 0.0283
vn -0.7210 -0.6807 -0.1297
vn -0.2727 -0.9246 -0.2660
vn -0.4866 -0.7398 -0.4646
vn 0.0034 -0.8829 -0.4695
vn -0.2074 -0.6864 -0.6971
vn 0.2801 -0.7366 -0.6156
vn 0.0998 -0.5404 -0.8355
vn 0.5730 -0.4805 -0.6639
vn 0.4277 -0.2900 -0.8561
vn 0.6827 0.0099 -0.7307
vn 0.8123 0.2763 -0.5137
vn 0.8324 0.5054 -0.2275
vn 0.5971 0.7047 -0.3833
vn 0.7210 0.6807 0.1297
vn 0.5215 0.8528 -0.0283
vn 0.8525 0.4444 0.2754
vn 0.4866 0.7398 0.4646
vn 0.2727 0.9246 0.2660
vn 0.2074 0.6864 0.6971
vn -0.0034 0.8829 0.4695
vn -0.0998 0.5404 0.8355
vn -0.2801 0.7366 0.6156
vn 0.2739 0.9442 -0.1829
vn -0.6437 -0.4668 -0.6065
vn -0.8324 -0.5054 0.2275
vt 0.217811 0.485231
vt 0.203719 0.482981
vt 0.199694 0.469289
vt 0.216195 0.468803
vt 0.668316 0.987430
vt 0.664292 0.973738
vt 0.680793 0.973252
vt 0.682409 0.989681
vt 0.888947 0.940254
vt 0.872518 0.938638
vt 0.873004 0.922138
vt 0.886696 0.926162
vt 0.888947 0.952920
vt 0.871977 0.951837
vt 0.230477 0.485231
vt 0.229394 0.468262
vt 0.858497 0.950977
vt 0.859357 0.937497
vt 0.860440 0.920527
vt 0.845017 0.950117
vt 0.846158 0.936956
vt 0.847774 0.920527
vt 0.662682 0.961174
vt 0.679652 0.960091
vt 0.662682 0.948508
vt 0.679110 0.946892
vt 0.664933 0.934416
vt 0.678625 0.930391
vt 0.829658 0.936470
vt 0.833682 0.922778
vt 0.997826 0.892890
vt 0.989453 0.904447
vt 0.978979 0.891687
vt 0.990990 0.880363
vt 0.980497 0.913403
vt 0.969263 0.900638
vt 0.828047 0.949034
vt 0.970474 0.921148
vt 0.959150 0.909137
vt 0.844476 0.963316
vt 0.828047 0.961700
vt 0.857637 0.964457
vt 0.843990 0.979817
vt 0.830298 0.975792
vt 0.856554 0.981427
vt 0.869220 0.981427
vt 0.870836 0.964999
vt 0.883313 0.979176
vt 0.887337 0.965484
vt 0.256733 0.479597
vt 0.243041 0.483621
vt 0.242555 0.467121
vt 0.258984 0.465505
vt 0.242014 0.453921
vt 0.258984 0.452838
vt 0.228534 0.454782
vt 0.240873 0.440760
vt 0.257373 0.440275
vt 0.227674 0.441302
vt 0.239257 0.424332
vt 0.253349 0.426583
vt 0.226591 0.424332
vt 0.973743 0.303313
vt 0.973257 0.286813
vt 0.989685 0.285197
vt 0.987434 0.299289
vt 0.961179 0.304923
vt 0.960096 0.287953
vt 0.959236 0.274474
vt 0.972715 0.273613
vt 0.989685 0.272530
vt 0.743462 0.972736
vt 0.742976 0.989237
vt 0.729285 0.985213
vt 0.727034 0.971121
vt 0.744004 0.959537
vt 0.727034 0.958454
vt 0.745145 0.946376
vt 0.728644 0.945890
vt 0.971575 0.260452
vt 0.988075 0.259967
vt 0.746760 0.929948
vt 0.732668 0.932198
vt 0.969959 0.244024
vt 0.984051 0.246275
vt 0.958375 0.260994
vt 0.957292 0.244024
vt 0.941700 0.889308
vt 0.929689 0.900632
vt 0.922853 0.888106
vt 0.931226 0.876549
vt 0.951416 0.880358
vt 0.940183 0.867593
vt 0.961529 0.871858
vt 0.950205 0.859847
vt 0.945214 0.262134
vt 0.944729 0.245634
vt 0.974288 0.861384
vt 0.962732 0.853011
vt 0.928786 0.263751
vt 0.931037 0.249658
vt 0.928786 0.276417
vt 0.945756 0.275334
vt 0.930396 0.288981
vt 0.946897 0.288495
vt 0.934420 0.302672
vt 0.948512 0.304923
vt 0.214513 0.442443
vt 0.198084 0.444059
vt 0.200335 0.429967
vt 0.214027 0.425942
vt 0.707639 0.988070
vt 0.707153 0.971570
vt 0.723582 0.969954
vt 0.721330 0.984046
vt 0.215054 0.455642
vt 0.198084 0.456725
vt 0.695075 0.989681
vt 0.693992 0.972711
vt 0.693132 0.959231
vt 0.706612 0.958371
vt 0.723582 0.957288
vt 0.692272 0.945751
vt 0.705471 0.945210
vt 0.721971 0.944724
vt 0.691189 0.928781
vt 0.703855 0.928781
vt 0.717947 0.931032
vt 0.983245 0.870341
vt 0.970480 0.881574
vt 0.960340 0.890498
vt 0.950200 0.899421
vt 0.946391 0.919611
vt 0.937435 0.910655
vt 0.771991 0.931558
vt 0.771505 0.948058
vt 0.758344 0.946917
vt 0.759427 0.929948
vt 0.770963 0.961258
vt 0.757484 0.960397
vt 0.769823 0.974419
vt 0.756623 0.973877
vt 0.768207 0.990847
vt 0.755540 0.990847
vt 0.786323 0.974904
vt 0.782299 0.988596
vt 0.787933 0.962341
vt 0.787933 0.949674
vt 0.785682 0.935582
vt 0.957947 0.927984
s 1
usemtl windows
f 4/1/4 1/2/1 2/3/2 6/4/6
f 1/5/1 3/6/3 97/7/97 2/8/2
f 4/9/4 7/10/7 3/11/3 1/12/1
f 5/13/5 8/14/8 7/10/7 4/9/4
f 5/15/5 4/1/4 6/4/6 34/16/34
f 8/14/8 10/17/10 9/18/9 7/10/7
f 7/10/7 9/18/9 12/19/12 3/11/3
f 10/17/10 23/20/23 11/21/11 9/18/9
f 9/18/9 11/21/11 14/22/14 12/19/12
f 3/6/3 12/23/12 13/24/13 97/7/97
f 12/23/12 14/25/14 15/26/15 13/24/13
f 14/25/14 16/27/16 17/28/17 15/26/15
f 11/21/11 18/29/18 16/30/16 14/22/14
f 16/31/16 18/32/18 19/33/19 17/34/17
f 18/32/18 20/35/20 21/36/21 19/33/19
f 23/20/23 20/37/20 18/29/18 11/21/11
f 20/35/20 22/38/22 86/39/86 21/36/21
f 24/40/24 22/41/22 20/37/20 23/20/23
f 26/42/26 24/40/24 23/20/23 10/17/10
f 25/43/25 96/44/96 22/41/22 24/40/24
f 27/45/27 25/43/25 24/40/24 26/42/26
f 29/46/29 27/45/27 26/42/26 28/47/28
f 28/47/28 26/42/26 10/17/10 8/14/8
f 31/48/31 29/46/29 28/47/28 30/49/30
f 30/49/30 28/47/28 8/14/8 5/13/5
f 31/50/31 30/51/30 32/52/32 33/53/33
f 30/51/30 5/15/5 34/16/34 32/52/32
f 33/53/33 32/52/32 35/54/35 36/55/36
f 32/52/32 34/16/34 37/56/37 35/54/35
f 36/55/36 35/54/35 38/57/38 39/58/39
f 35/54/35 37/56/37 40/59/40 38/57/38
f 39/58/39 38/57/38 41/60/41 42/61/42
f 38/57/38 40/59/40 43/62/43 41/60/41
f 41/63/41 44/64/44 47/65/47 42/66/42
f 43/67/43 45/68/45 44/64/44 41/63/41
f 45/68/45 68/69/68 46/70/46 44/64/44
f 44/64/44 46/70/46 49/71/49 47/65/47
f 48/72/48 39/73/39 42/74/42 47/75/47
f 50/76/50 48/72/48 47/75/47 49/77/49
f 52/78/52 50/76/50 49/77/49 51/79/51
f 46/70/46 54/80/54 51/81/51 49/71/49
f 89/82/89 52/78/52 51/79/51 53/83/53
f 54/80/54 56/84/56 53/85/53 51/81/51
f 55/86/55 58/87/58 56/84/56 54/80/54
f 68/69/68 55/86/55 54/80/54 46/70/46
f 57/88/57 89/89/89 53/90/53 56/91/56
f 59/92/59 57/88/57 56/91/56 58/93/58
f 61/94/61 59/92/59 58/93/58 60/95/60
f 63/96/63 60/97/60 58/87/58 55/86/55
f 81/98/81 61/94/61 60/95/60 62/99/62
f 64/100/64 62/101/62 60/97/60 63/96/63
f 66/102/66 64/100/64 63/96/63 65/103/65
f 65/103/65 63/96/63 55/86/55 68/69/68
f 69/104/69 66/102/66 65/103/65 67/105/67
f 67/105/67 65/103/65 68/69/68 45/68/45
f 72/106/72 69/104/69 67/105/67 70/107/70
f 70/107/70 67/105/67 45/68/45 43/67/43
f 71/108/71 73/109/73 72/110/72 70/111/70
f 40/59/40 71/108/71 70/111/70 43/62/43
f 73/112/73 75/113/75 69/114/69 72/115/72
f 98/116/98 74/117/74 73/109/73 71/108/71
f 74/118/74 76/119/76 75/113/75 73/112/73
f 76/119/76 78/120/78 77/121/77 75/113/75
f 75/113/75 77/121/77 66/122/66 69/114/69
f 78/120/78 80/123/80 79/124/79 77/121/77
f 77/121/77 79/124/79 64/125/64 66/122/66
f 80/123/80 82/126/82 81/127/81 79/124/79
f 79/124/79 81/127/81 62/128/62 64/125/64
f 82/129/82 83/130/83 61/94/61 81/98/81
f 17/34/17 19/33/19 83/130/83 82/129/82
f 15/26/15 17/28/17 82/126/82 80/123/80
f 19/33/19 21/36/21 84/131/84 83/130/83
f 83/130/83 84/131/84 59/92/59 61/94/61
f 21/36/21 86/39/86 85/132/85 84/131/84
f 84/131/84 85/132/85 57/88/57 59/92/59
f 86/39/86 88/133/88 87/134/87 85/132/85
f 85/132/85 87/134/87 89/89/89 57/88/57
f 88/135/88 91/136/91 90/137/90 87/138/87
f 87/138/87 90/137/90 52/78/52 89/82/89
f 91/136/91 93/139/93 92/140/92 90/137/90
f 90/137/90 92/140/92 50/76/50 52/78/52
f 93/139/93 95/141/95 94/142/94 92/140/92
f 92/140/92 94/142/94 48/72/48 50/76/50
f 95/141/95 33/143/33 36/144/36 94/142/94
f 94/142/94 36/144/36 39/73/39 48/72/48
f 29/145/29 31/146/31 33/143/33 95/141/95
f 27/147/27 29/145/29 95/141/95 93/139/93
f 25/148/25 27/147/27 93/139/93 91/136/91
f 96/149/96 25/148/25 91/136/91 88/135/88
f 22/38/22 96/150/96 88/133/88 86/39/86
f 13/24/13 15/26/15 80/123/80 78/120/78
f 97/7/97 13/24/13 78/120/78 76/119/76
f 2/8/2 97/7/97 76/119/76 74/118/74
f 6/4/6 2/3/2 74/117/74 98/116/98
f 34/16/34 6/4/6 98/116/98 37/56/37
f 37/56/37 98/116/98 71/108/71 40/59/40
