# Blender 4.4.3
# www.blender.org
mtllib core_mini.003.mtl
o core_mini.003
v 3.627506 0.170651 4.527996
v 3.711717 0.364359 4.490763
v 3.448838 0.118309 4.421512
v 3.762750 0.011986 4.578343
v 3.897369 -0.128270 4.565658
v 3.921540 0.223929 4.571021
v 3.556345 -0.117887 4.474816
v 3.699861 -0.296032 4.457020
v 3.414059 -0.199230 4.314233
v 3.557031 -0.390258 4.288790
v 3.324152 -0.242767 4.107665
v 3.325767 0.065334 4.280083
v 3.337592 0.328757 4.183004
v 3.250823 0.011810 4.108404
v 3.253257 0.246753 3.985998
v 3.231475 -0.042347 3.901781
v 3.247330 0.114597 3.756461
v 3.298364 -0.237776 3.844041
v 3.319301 -0.099975 3.618741
v 3.412333 -0.389138 3.798704
v 3.452110 -0.272453 3.546200
v 3.567060 -0.502352 3.764104
v 3.457342 -0.426466 4.073543
v 3.639227 -0.553010 4.013930
v 3.880972 -0.608676 3.920936
v 3.743144 -0.523268 4.216331
v 3.983936 -0.582743 4.084278
v 3.871420 -0.428130 4.381081
v 4.078988 -0.502177 4.234043
v 4.031447 -0.252590 4.498406
v 4.164899 -0.358501 4.368121
v 4.236615 -0.086314 4.477286
v 4.341866 -0.256127 4.303294
v 4.093751 0.072643 4.560785
v 4.376374 0.069423 4.383145
v 4.462613 -0.134710 4.210378
v 4.233982 0.243355 4.467122
v 4.462719 0.217763 4.230866
v 4.534689 0.003191 4.093147
v 4.329910 0.390241 4.303408
v 4.483656 0.355565 4.005567
v 4.550544 0.160135 3.947827
v 4.369686 0.506926 4.050903
v 4.457867 0.360555 3.741943
v 4.324677 0.544254 3.776064
v 4.367961 0.317018 3.535375
v 4.531197 0.105978 3.741204
v 4.528763 -0.128965 3.863610
v 4.456253 0.052454 3.569525
v 4.444427 -0.210969 3.666603
v 4.333182 -0.000521 3.428096
v 4.296570 -0.253846 3.496459
v 4.154514 -0.052863 3.321612
v 4.225674 0.235675 3.374792
v 4.082159 0.413820 3.392588
v 4.019269 0.105802 3.271265
v 3.860480 -0.106141 3.278587
v 3.884650 0.246058 3.283950
v 3.688268 0.045145 3.288823
v 3.750573 0.370379 3.351202
v 3.545405 0.204103 3.372321
v 3.617121 0.476290 3.481486
v 3.910599 0.545917 3.468527
v 3.703032 0.619965 3.615565
v 4.038876 0.641057 3.633278
v 3.798083 0.700531 3.765330
v 4.142793 0.670799 3.835678
v 4.224988 0.508046 3.560818
v 3.901047 0.726464 3.928673
v 4.214959 0.620141 4.085504
v 4.147645 0.528006 4.324601
v 4.013150 0.689287 4.107700
v 3.904540 0.623677 4.280616
v 3.804443 0.513366 4.406183
v 3.711554 0.675711 4.106729
v 3.576931 0.552774 4.246055
v 3.573751 0.646356 3.925629
v 3.425613 0.517153 4.063259
v 3.479361 0.550830 3.739578
v 3.334412 0.422339 3.862578
v 3.440153 0.373915 3.546313
v 3.319407 0.252498 3.639229
v 3.405647 0.048365 3.466463
v 3.548038 -0.125567 3.382486
v 3.734731 -0.275673 3.368560
v 3.634375 -0.410218 3.525007
v 3.977577 -0.395578 3.443424
v 3.877480 -0.505889 3.568992
v 4.070303 -0.246571 3.358845
v 4.205090 -0.434985 3.603553
v 4.070466 -0.557924 3.742879
v 4.356407 -0.399365 3.786349
v 4.208269 -0.528567 3.923980
v 4.447607 -0.304551 3.987030
v 4.302659 -0.433043 4.110030
v 3.768869 -0.571499 3.741907
v 3.485450 0.371634 4.353148
v 4.047288 0.393461 4.481048
vn -0.3947 0.1674 0.9034
vn -0.2754 0.4444 0.8525
vn -0.6507 0.0931 0.7536
vn -0.2025 -0.0587 0.9775
vn 0.0095 -0.2803 0.9599
vn 0.0429 0.2468 0.9681
vn -0.5009 -0.2621 0.8249
vn -0.2811 -0.5277 0.8016
vn -0.7181 -0.3796 0.5833
vn -0.5002 -0.6727 0.5452
vn -0.8505 -0.4502 0.2721
vn -0.8466 0.0096 0.5321
vn -0.8306 0.3973 0.3902
vn -0.9626 -0.0747 0.2604
vn -0.9561 0.2787 0.0909
vn -0.9878 -0.1516 -0.0345
vn -0.9676 0.0721 -0.2420
vn -0.8947 -0.4310 -0.1170
vn -0.8577 -0.2375 -0.4560
vn -0.7169 -0.6711 -0.1889
vn -0.6596 -0.5005 -0.5607
vn -0.4715 -0.8477 -0.2429
vn -0.6519 -0.7271 0.2152
vn -0.3761 -0.9173 0.1309
vn -0.0233 -0.9995 -0.0190
vn -0.2149 -0.8751 0.4336
vn 0.1392 -0.9610 0.2389
vn -0.0265 -0.7293 0.6837
vn 0.2886 -0.8318 0.4742
vn 0.2207 -0.4755 0.8516
vn 0.4102 -0.6252 0.6640
vn 0.5173 -0.2203 0.8270
vn 0.6639 -0.4805 0.5730
vn 0.2985 0.0148 0.9543
vn 0.7307 0.0099 0.6827
vn 0.8561 -0.2900 0.4277
vn 0.5137 0.2763 0.8123
vn 0.8577 0.2375 0.4560
vn 0.9676 -0.0721 0.2420
vn 0.6596 0.5005 0.5607
vn 0.8947 0.4310 0.1170
vn 0.9878 0.1516 0.0345
vn 0.7170 0.6711 0.1889
vn 0.8505 0.4502 -0.2721
vn 0.6519 0.7271 -0.2152
vn 0.7181 0.3796 -0.5833
vn 0.9626 0.0747 -0.2604
vn 0.9561 -0.2787 -0.0909
vn 0.8466 -0.0096 -0.5321
vn 0.8306 -0.3973 -0.3902
vn 0.6507 -0.0931 -0.7536
vn 0.6065 -0.4668 -0.6437
vn 0.3947 -0.1674 -0.9034
vn 0.5009 0.2621 -0.8249
vn 0.2811 0.5277 -0.8016
vn 0.2025 0.0587 -0.9775
vn -0.0429 -0.2468 -0.9681
vn -0.0095 0.2803 -0.9599
vn -0.2985 -0.0148 -0.9543
vn -0.2207 0.4755 -0.8516
vn -0.5173 0.2203 -0.8270
vn -0.4102 0.6252 -0.6640
vn 0.0265 0.7293 -0.6837
vn -0.2886 0.8318 -0.4742
vn 0.2149 0.8751 -0.4336
vn -0.1392 0.9610 -0.2389
vn 0.3761 0.9173 -0.1309
vn 0.5002 0.6727 -0.5452
vn 0.0233 0.9995 0.0190
vn 0.4715 0.8477 0.2429
vn 0.3833 0.7047 0.5971
vn 0.1829 0.9442 0.2739
vn 0.0283 0.8528 0.5215
vn -0.1297 0.6807 0.7210
vn -0.2660 0.9246 0.2727
vn -0.4646 0.7398 0.4866
vn -0.4695 0.8829 -0.0034
vn -0.6971 0.6864 0.2074
vn -0.6156 0.7366 -0.2801
vn -0.8355 0.5404 -0.0998
vn -0.6639 0.4805 -0.5730
vn -0.8561 0.2900 -0.4277
vn -0.7307 -0.0099 -0.6827
vn -0.5137 -0.2763 -0.8123
vn -0.2275 -0.5054 -0.8324
vn -0.3833 -0.7047 -0.5971
vn 0.1297 -0.6807 -0.7210
vn -0.0283 -0.8528 -0.5215
vn 0.2754 -0.4444 -0.8525
vn 0.4646 -0.7398 -0.4866
vn 0.2660 -0.9246 -0.2727
vn 0.6971 -0.6864 -0.2074
vn 0.4695 -0.8829 0.0034
vn 0.8355 -0.5404 0.0998
vn 0.6156 -0.7366 0.2801
vn -0.1829 -0.9442 -0.2739
vn -0.6065 0.4668 0.6437
vn 0.2275 0.5054 0.8324
vt 0.217811 0.485231
vt 0.216195 0.468803
vt 0.199694 0.469289
vt 0.203719 0.482981
vt 0.668316 0.987430
vt 0.682409 0.989681
vt 0.680793 0.973252
vt 0.664292 0.973738
vt 0.888947 0.940254
vt 0.886696 0.926162
vt 0.873004 0.922138
vt 0.872518 0.938638
vt 0.888947 0.952920
vt 0.871977 0.951837
vt 0.230477 0.485231
vt 0.229394 0.468262
vt 0.859357 0.937497
vt 0.858497 0.950977
vt 0.860440 0.920527
vt 0.846158 0.936956
vt 0.845017 0.950117
vt 0.847774 0.920527
vt 0.679652 0.960091
vt 0.662682 0.961174
vt 0.679110 0.946892
vt 0.662682 0.948508
vt 0.678625 0.930391
vt 0.664933 0.934416
vt 0.833682 0.922778
vt 0.829658 0.936470
vt 0.997826 0.892890
vt 0.990990 0.880363
vt 0.978979 0.891687
vt 0.989453 0.904447
vt 0.969263 0.900638
vt 0.980497 0.913403
vt 0.828047 0.949034
vt 0.959150 0.909137
vt 0.970474 0.921148
vt 0.844476 0.963316
vt 0.828047 0.961700
vt 0.857637 0.964457
vt 0.843990 0.979817
vt 0.830298 0.975792
vt 0.856554 0.981427
vt 0.869220 0.981427
vt 0.870836 0.964999
vt 0.883313 0.979176
vt 0.887337 0.965484
vt 0.256733 0.479597
vt 0.258984 0.465505
vt 0.242555 0.467121
vt 0.243041 0.483621
vt 0.258984 0.452838
vt 0.242014 0.453921
vt 0.228534 0.454782
vt 0.257373 0.440275
vt 0.240873 0.440760
vt 0.227674 0.441302
vt 0.253349 0.426583
vt 0.239257 0.424332
vt 0.226591 0.424332
vt 0.973743 0.303313
vt 0.987434 0.299289
vt 0.989685 0.285197
vt 0.973257 0.286813
vt 0.961179 0.304923
vt 0.960096 0.287953
vt 0.972715 0.273613
vt 0.959236 0.274474
vt 0.989685 0.272530
vt 0.743462 0.972736
vt 0.727034 0.971121
vt 0.729285 0.985213
vt 0.742976 0.989237
vt 0.744004 0.959537
vt 0.727034 0.958454
vt 0.745145 0.946376
vt 0.728644 0.945890
vt 0.988075 0.259967
vt 0.971575 0.260452
vt 0.746760 0.929948
vt 0.732668 0.932198
vt 0.984051 0.246275
vt 0.969959 0.244024
vt 0.958375 0.260994
vt 0.957292 0.244024
vt 0.941700 0.889308
vt 0.931226 0.876549
vt 0.922853 0.888106
vt 0.929689 0.900632
vt 0.951416 0.880358
vt 0.940183 0.867593
vt 0.961529 0.871858
vt 0.950205 0.859847
vt 0.945214 0.262134
vt 0.944729 0.245634
vt 0.974288 0.861384
vt 0.962732 0.853011
vt 0.928786 0.263751
vt 0.931037 0.249658
vt 0.928786 0.276417
vt 0.945756 0.275334
vt 0.930396 0.288981
vt 0.946897 0.288495
vt 0.934420 0.302672
vt 0.948512 0.304923
vt 0.214513 0.442443
vt 0.214027 0.425942
vt 0.200335 0.429967
vt 0.198084 0.444059
vt 0.707639 0.988070
vt 0.721330 0.984046
vt 0.723582 0.969954
vt 0.707153 0.971570
vt 0.215054 0.455642
vt 0.198084 0.456725
vt 0.695075 0.989681
vt 0.693992 0.972711
vt 0.706612 0.958371
vt 0.693132 0.959231
vt 0.723582 0.957288
vt 0.705471 0.945210
vt 0.692272 0.945751
vt 0.721971 0.944724
vt 0.703855 0.928781
vt 0.691189 0.928781
vt 0.717947 0.931032
vt 0.983245 0.870341
vt 0.970480 0.881574
vt 0.960340 0.890498
vt 0.950200 0.899421
vt 0.937435 0.910655
vt 0.946391 0.919611
vt 0.771991 0.931558
vt 0.759427 0.929948
vt 0.758344 0.946917
vt 0.771505 0.948058
vt 0.757484 0.960397
vt 0.770963 0.961258
vt 0.756623 0.973877
vt 0.769823 0.974419
vt 0.755540 0.990847
vt 0.768207 0.990847
vt 0.786323 0.974904
vt 0.782299 0.988596
vt 0.787933 0.962341
vt 0.787933 0.949674
vt 0.785682 0.935582
vt 0.957947 0.927984
s 1
usemtl windows
f 4/1/4 6/2/6 2/3/2 1/4/1
f 1/5/1 2/6/2 97/7/97 3/8/3
f 4/9/4 1/10/1 3/11/3 7/12/7
f 5/13/5 4/9/4 7/12/7 8/14/8
f 5/15/5 34/16/34 6/2/6 4/1/4
f 8/14/8 7/12/7 9/17/9 10/18/10
f 7/12/7 3/11/3 12/19/12 9/17/9
f 10/18/10 9/17/9 11/20/11 23/21/23
f 9/17/9 12/19/12 14/22/14 11/20/11
f 3/8/3 97/7/97 13/23/13 12/24/12
f 12/24/12 13/23/13 15/25/15 14/26/14
f 14/26/14 15/25/15 17/27/17 16/28/16
f 11/20/11 14/22/14 16/29/16 18/30/18
f 16/31/16 17/32/17 19/33/19 18/34/18
f 18/34/18 19/33/19 21/35/21 20/36/20
f 23/21/23 11/20/11 18/30/18 20/37/20
f 20/36/20 21/35/21 86/38/86 22/39/22
f 24/40/24 23/21/23 20/37/20 22/41/22
f 26/42/26 10/18/10 23/21/23 24/40/24
f 25/43/25 24/40/24 22/41/22 96/44/96
f 27/45/27 26/42/26 24/40/24 25/43/25
f 29/46/29 28/47/28 26/42/26 27/45/27
f 28/47/28 8/14/8 10/18/10 26/42/26
f 31/48/31 30/49/30 28/47/28 29/46/29
f 30/49/30 5/13/5 8/14/8 28/47/28
f 31/50/31 33/51/33 32/52/32 30/53/30
f 30/53/30 32/52/32 34/16/34 5/15/5
f 33/51/33 36/54/36 35/55/35 32/52/32
f 32/52/32 35/55/35 37/56/37 34/16/34
f 36/54/36 39/57/39 38/58/38 35/55/35
f 35/55/35 38/58/38 40/59/40 37/56/37
f 39/57/39 42/60/42 41/61/41 38/58/38
f 38/58/38 41/61/41 43/62/43 40/59/40
f 41/63/41 42/64/42 47/65/47 44/66/44
f 43/67/43 41/63/41 44/66/44 45/68/45
f 45/68/45 44/66/44 46/69/46 68/70/68
f 44/66/44 47/65/47 49/71/49 46/69/46
f 48/72/48 47/73/47 42/74/42 39/75/39
f 50/76/50 49/77/49 47/73/47 48/72/48
f 52/78/52 51/79/51 49/77/49 50/76/50
f 46/69/46 49/71/49 51/80/51 54/81/54
f 89/82/89 53/83/53 51/79/51 52/78/52
f 54/81/54 51/80/51 53/84/53 56/85/56
f 55/86/55 54/81/54 56/85/56 58/87/58
f 68/70/68 46/69/46 54/81/54 55/86/55
f 57/88/57 56/89/56 53/90/53 89/91/89
f 59/92/59 58/93/58 56/89/56 57/88/57
f 61/94/61 60/95/60 58/93/58 59/92/59
f 63/96/63 55/86/55 58/87/58 60/97/60
f 81/98/81 62/99/62 60/95/60 61/94/61
f 64/100/64 63/96/63 60/97/60 62/101/62
f 66/102/66 65/103/65 63/96/63 64/100/64
f 65/103/65 68/70/68 55/86/55 63/96/63
f 69/104/69 67/105/67 65/103/65 66/102/66
f 67/105/67 45/68/45 68/70/68 65/103/65
f 72/106/72 70/107/70 67/105/67 69/104/69
f 70/107/70 43/67/43 45/68/45 67/105/67
f 71/108/71 70/109/70 72/110/72 73/111/73
f 40/59/40 43/62/43 70/109/70 71/108/71
f 73/112/73 72/113/72 69/114/69 75/115/75
f 98/116/98 71/108/71 73/111/73 74/117/74
f 74/118/74 73/112/73 75/115/75 76/119/76
f 76/119/76 75/115/75 77/120/77 78/121/78
f 75/115/75 69/114/69 66/122/66 77/120/77
f 78/121/78 77/120/77 79/123/79 80/124/80
f 77/120/77 66/122/66 64/125/64 79/123/79
f 80/124/80 79/123/79 81/126/81 82/127/82
f 79/123/79 64/125/64 62/128/62 81/126/81
f 82/129/82 81/98/81 61/94/61 83/130/83
f 17/32/17 82/129/82 83/130/83 19/33/19
f 15/25/15 80/124/80 82/127/82 17/27/17
f 19/33/19 83/130/83 84/131/84 21/35/21
f 83/130/83 61/94/61 59/92/59 84/131/84
f 21/35/21 84/131/84 85/132/85 86/38/86
f 84/131/84 59/92/59 57/88/57 85/132/85
f 86/38/86 85/132/85 87/133/87 88/134/88
f 85/132/85 57/88/57 89/91/89 87/133/87
f 88/135/88 87/136/87 90/137/90 91/138/91
f 87/136/87 89/82/89 52/78/52 90/137/90
f 91/138/91 90/137/90 92/139/92 93/140/93
f 90/137/90 52/78/52 50/76/50 92/139/92
f 93/140/93 92/139/92 94/141/94 95/142/95
f 92/139/92 50/76/50 48/72/48 94/141/94
f 95/142/95 94/141/94 36/143/36 33/144/33
f 94/141/94 48/72/48 39/75/39 36/143/36
f 29/145/29 95/142/95 33/144/33 31/146/31
f 27/147/27 93/140/93 95/142/95 29/145/29
f 25/148/25 91/138/91 93/140/93 27/147/27
f 96/149/96 88/135/88 91/138/91 25/148/25
f 22/39/22 86/38/86 88/134/88 96/150/96
f 13/23/13 78/121/78 80/124/80 15/25/15
f 97/7/97 76/119/76 78/121/78 13/23/13
f 2/6/2 74/118/74 76/119/76 97/7/97
f 6/2/6 98/116/98 74/117/74 2/3/2
f 34/16/34 37/56/37 98/116/98 6/2/6
f 37/56/37 40/59/40 71/108/71 98/116/98
