# Blender 4.3.1
# www.blender.org
mtllib asteroid_3.mtl
o asteroid_model_3.001
v -0.857325 -0.288214 -0.226948
v -0.857325 -0.288214 -0.226948
v 0.628581 0.789848 -0.500095
v 1.118031 -0.379403 0.060062
v 1.118031 -0.379403 0.060062
v 0.440686 -0.693209 -0.375340
v 0.440686 -0.693209 -0.375340
v 0.723711 -0.163091 -0.631579
v 0.723711 -0.163091 -0.631579
v 0.723711 -0.163091 -0.631579
v -0.630878 -0.612449 -0.132339
v -0.630878 -0.612449 -0.132339
v -0.630878 -0.612449 -0.132339
v -0.825584 -0.497062 0.187030
v -0.825584 -0.497062 0.187030
v -0.191454 -0.506950 -0.888813
v -0.191454 -0.506950 -0.888813
v -0.191454 -0.506950 -0.888813
v 0.095154 -0.926427 -0.170481
v 0.095154 -0.926427 -0.170481
v 0.823077 0.239865 -0.398777
v 0.760758 0.383599 -0.841214
v 0.760758 0.383599 -0.841214
v 0.619466 0.236921 0.433986
v 0.142018 -0.542190 0.808749
v 0.142018 -0.542190 0.808749
v 0.142018 -0.542190 0.808749
v -0.570856 -0.082050 0.469426
v -0.570856 -0.082050 0.469426
v -0.884346 -0.169755 0.021378
v -0.884346 -0.169755 0.021378
v -0.884346 -0.169755 0.021378
v -0.255280 -0.134688 0.690808
v -0.255280 -0.134688 0.690808
v -0.643193 0.106799 -0.256732
v -0.643193 0.106799 -0.256732
v -0.538665 0.397590 -0.596143
v 0.660622 0.449725 0.214412
v -0.173586 0.254866 0.342568
v -0.173586 0.254866 0.342568
v 0.301662 0.823245 0.296264
v 0.301662 0.823245 0.296264
v 0.486001 0.743556 0.473894
v 0.486001 0.743556 0.473894
v 0.157355 1.012006 -0.181474
v 0.157355 1.012006 -0.181474
v 0.270970 0.836343 -0.002956
v 0.270970 0.836343 -0.002956
v -0.319945 0.512310 0.101855
v -0.176278 0.965446 -0.282943
v -0.176278 0.965446 -0.282943
v -0.364675 0.741622 -0.408159
v 0.230752 0.931136 -0.478245
v 0.230752 0.931136 -0.478245
v 0.230752 0.931136 -0.478245
v 0.024110 0.840986 -0.576940
v 0.072232 0.577450 -0.937484
v -0.128375 0.445726 -0.736234
v -0.613499 0.601746 -0.217117
v -0.613499 0.601746 -0.217117
v -0.070972 0.567644 0.227878
v 0.051500 0.682653 0.588001
v 0.051500 0.682653 0.588001
v 0.624172 0.652515 -0.111659
v 0.527157 0.753078 -0.926285
v 0.527157 0.753078 -0.926285
v 0.476135 0.362364 -1.105835
v 0.476135 0.362364 -1.105835
v 0.476135 0.362364 -1.105835
v 0.413314 0.563266 -1.073172
v -0.287176 0.000646 -0.875091
v -0.745200 0.042283 -0.068991
v -0.745200 0.042283 -0.068991
v -0.610375 0.459209 0.117676
v -0.610375 0.459209 0.117676
v 0.102093 -0.054625 0.698998
v 0.102093 -0.054625 0.698998
v 0.243079 0.448733 0.732993
v 0.243079 0.448733 0.732993
v 0.243079 0.448733 0.732993
v -0.049811 -0.173814 -1.019350
v -0.049811 -0.173814 -1.019350
v -0.498649 -0.334004 -0.488791
v -0.498649 -0.334004 -0.488791
v -0.498649 -0.334004 -0.488791
v 1.115450 -0.211009 0.181175
v 1.071792 -0.264400 -0.300461
v 1.071792 -0.264400 -0.300461
v 0.183309 -0.597534 -0.728052
v -0.350070 -0.627351 -0.263921
v -0.350070 -0.627351 -0.263921
v -0.350070 -0.627351 -0.263921
v -0.350070 -0.627351 -0.263921
v -0.150509 -0.814579 0.159388
v -0.150509 -0.814579 0.159388
v 0.195357 -0.876038 0.493730
v 0.195357 -0.876038 0.493730
v 0.796316 -0.585727 -0.454472
v 0.796316 -0.585727 -0.454472
v 0.878802 -0.630387 -0.195018
v 0.717073 -0.773026 0.830648
v 0.717073 -0.773026 0.830648
v 0.717073 -0.773026 0.830648
v 0.481801 -0.750085 -0.076880
vn -0.8567 -0.1115 -0.5037
vn -0.8034 -0.4846 0.3460
vn -0.9512 0.2751 0.1401
vn -0.3752 -0.5617 -0.7373
vn -0.6480 0.0645 -0.7589
vn -0.1499 -0.1922 -0.9698
vn 0.6588 0.1425 0.7387
vn 0.8536 0.4165 0.3128
vn 0.5551 0.6689 0.4944
vn 0.7079 0.7063 -0.0070
vn 0.0745 0.9460 -0.3155
vn 0.0644 0.9393 0.3369
vn 0.3730 0.7214 -0.5835
vn -0.3452 0.7429 -0.5736
vn -0.4988 0.4808 -0.7211
vn 0.0330 0.3973 -0.9171
vn -0.3893 0.9200 0.0442
vn -0.5478 0.6429 -0.5353
vn -0.5884 0.4740 -0.6551
vn -0.7351 0.2859 -0.6148
vn 0.1176 0.9273 0.3554
vn -0.2231 0.6369 0.7380
vn -0.8599 0.5084 -0.0461
vn -0.8599 0.5084 -0.0460
vn -0.6634 0.5197 0.5383
vn -0.6276 0.6977 0.3455
vn -0.0689 0.9903 0.1204
vn -0.5309 0.6082 0.5901
vn -0.4209 0.5170 0.7453
vn 0.0339 0.1397 0.9896
vn 0.7576 0.6366 0.1445
vn 0.6483 -0.2630 -0.7145
vn 0.3178 -0.0435 -0.9472
vn 0.8876 0.0859 -0.4526
vn 0.8876 0.0859 -0.4525
vn -0.8566 -0.1114 -0.5037
vn -0.8976 0.4374 -0.0543
vn -0.9115 0.1777 -0.3708
vn -0.9116 0.1777 -0.3708
vn -0.6424 0.2417 0.7273
vn -0.3807 0.2267 0.8965
vn 0.0513 0.2492 0.9671
vn 0.0340 0.1397 0.9896
vn -0.5309 0.6083 0.5901
vn -0.1246 -0.1886 0.9741
vn 0.9027 0.2243 0.3671
vn 0.9440 0.2837 -0.1682
vn 0.2949 -0.6871 -0.6640
vn -0.7403 -0.3308 -0.5853
vn -0.1247 -0.1886 0.9741
vn -0.1248 -0.1886 0.9741
vn 0.4772 -0.4121 0.7762
vn 0.9166 -0.3997 0.0131
vn 0.9074 -0.0313 -0.4191
vn 0.6484 -0.2630 -0.7144
vn 0.3424 -0.8199 -0.4588
vn -0.0343 -0.9807 -0.1927
vn -0.3752 -0.5617 -0.7374
vn -0.4447 -0.8159 -0.3696
vn -0.4446 -0.8159 -0.3696
vn -0.4966 -0.8029 -0.3298
vn -0.7403 -0.3308 -0.5852
vn -0.4967 -0.8028 -0.3298
vn -0.4967 -0.8028 -0.3297
vn -0.3898 -0.9173 0.0811
vn -0.4447 -0.8159 -0.3695
vn -0.1250 -0.9380 0.3234
vn 0.3891 -0.6351 -0.6673
vn 0.6484 -0.2630 -0.7145
vn 0.5580 -0.8294 -0.0248
vn 0.3424 -0.8199 -0.4587
vn 0.3889 -0.9160 -0.0981
vn 0.4772 -0.4120 0.7762
vt 0.932520 0.015947
vt 0.887932 0.062156
vt 0.873159 0.002316
vt 0.323990 0.893091
vt 0.233784 0.816467
vt 0.312121 0.807658
vt 0.226054 0.350316
vt 0.233685 0.282092
vt 0.334698 0.299881
vt 0.219658 0.092430
vt 0.298101 0.068605
vt 0.353361 0.120604
vt 0.180878 0.002316
vt 0.130733 0.575234
vt 0.253888 0.551185
vt 0.123912 0.621859
vt 0.211586 0.654186
vt 0.281328 0.600244
vt 0.586509 0.531761
vt 0.611987 0.599777
vt 0.542384 0.558774
vt 0.041091 0.637184
vt 0.059628 0.704583
vt 0.176883 0.713932
vt 0.105189 0.790127
vt 0.491577 0.592985
vt 0.561457 0.737236
vt 0.019964 0.773154
vt 0.665726 0.726613
vt 0.602594 0.786087
vt 0.500153 0.708402
vt 0.431054 0.622805
vt 0.414469 0.710572
vt 0.369779 0.631134
vt 0.493964 0.787805
vt 0.357993 0.741064
vt 0.343519 0.378596
vt 0.327535 0.181267
vt 0.353361 0.247365
vt 0.238295 0.189695
vt 0.632109 0.150062
vt 0.634012 0.002316
vt 0.700325 0.067465
vt 0.096126 0.067940
vt 0.101208 0.004416
vt 0.323990 0.626062
vt 0.113826 0.972442
vt 0.064317 0.898408
vt 0.092250 0.866613
vt 0.002316 0.805780
vt 0.677020 0.811546
vt 0.063570 0.960637
vt 0.657413 0.855832
vt 0.530271 0.911240
vt 0.440912 0.902341
vt 0.385149 0.842615
vt 0.754513 0.676444
vt 0.754513 0.531761
vt 0.816691 0.570940
vt 0.357993 0.932925
vt 0.271838 0.420772
vt 0.057421 0.361243
vt 0.110757 0.179611
vt 0.466510 0.145381
vt 0.462394 0.046713
vt 0.205520 0.918713
vt 0.661440 0.920106
vt 0.621187 0.986255
vt 0.758789 0.066472
vt 0.704957 0.142829
vt 0.715826 0.279229
vt 0.194701 0.497875
vt 0.082478 0.546553
vt 0.015194 0.353664
vt 0.002316 0.263048
vt 0.029577 0.170082
vt 0.514831 0.237848
vt 0.418185 0.293706
vt 0.395843 0.095492
vt 0.715504 0.510108
vt 0.704957 0.429464
vt 0.780289 0.429464
vt 0.357993 0.244836
vt 0.739853 0.604517
vt 0.681653 0.620653
vt 0.749881 0.531761
vt 0.184584 0.997684
vt 0.947426 0.106649
vt 0.749881 0.720715
vt 0.948638 0.291497
vt 0.891444 0.237641
vt 0.952830 0.160601
vt 0.816809 0.324553
vt 0.698509 0.239566
vt 0.600879 0.219269
vt 0.700325 0.331169
vt 0.616962 0.283678
vt 0.804486 0.751663
vt 0.754513 0.827200
vt 0.754513 0.681077
vt 0.521391 0.311296
vt 0.704957 0.424832
vt 0.455204 0.446069
vt 0.581962 0.527129
s 1
usemtl Material.001
f 2/1/1 15/2/2 32/3/3
f 16/4/4 71/5/5 81/6/6
f 24/7/7 38/8/8 43/9/9
f 3/10/10 54/11/11 45/12/12
f 3/10/10 65/13/13 54/11/11
f 53/14/11 66/15/13 56/16/14
f 66/15/13 57/17/15 56/16/14
f 66/15/13 70/18/16 57/17/15
f 55/19/11 51/20/17 46/21/12
f 53/14/11 56/16/14 50/22/17
f 56/16/14 52/23/18 50/22/17
f 57/17/15 58/24/19 56/16/14
f 56/16/14 58/24/19 52/23/18
f 58/24/19 37/25/20 52/23/18
f 51/20/17 48/26/21 46/21/12
f 51/20/17 49/27/22 48/26/21
f 52/23/18 59/28/23 50/22/17
f 52/23/18 37/25/20 59/28/23
f 60/29/24 75/30/25 51/20/17
f 51/20/17 75/30/25 49/27/22
f 49/27/22 61/31/26 48/26/21
f 61/31/26 42/32/27 48/26/21
f 61/31/26 62/33/28 42/32/27
f 62/33/28 44/34/9 42/32/27
f 49/27/22 39/35/29 61/31/26
f 39/35/29 62/33/28 61/31/26
f 62/33/28 79/36/30 44/34/9
f 78/37/30 24/7/7 43/9/9
f 47/38/21 3/10/10 45/12/12
f 41/39/27 43/9/9 47/38/21
f 43/9/9 64/40/31 47/38/21
f 47/38/21 64/40/31 3/10/10
f 43/9/9 38/8/8 64/40/31
f 9/41/32 69/42/33 23/43/34
f 22/44/35 65/13/13 3/10/10
f 22/44/35 67/45/33 65/13/13
f 68/46/33 70/18/16 66/15/13
f 81/6/6 57/17/15 70/18/16
f 81/6/6 71/5/5 57/17/15
f 71/5/5 58/24/19 57/17/15
f 71/5/5 37/25/20 58/24/19
f 1/47/36 72/48/37 35/49/38
f 35/49/38 59/28/23 37/25/20
f 72/48/37 74/50/25 35/49/38
f 36/51/39 75/30/25 60/29/24
f 1/47/36 30/52/3 72/48/37
f 73/53/37 28/54/40 75/30/25
f 28/54/40 49/27/22 75/30/25
f 33/55/41 39/35/29 49/27/22
f 33/55/41 77/56/42 39/35/29
f 77/56/42 79/36/30 39/35/29
f 40/57/29 80/58/43 63/59/44
f 33/55/41 26/60/45 77/56/42
f 76/61/42 24/7/7 78/37/30
f 86/62/46 38/8/8 24/7/7
f 86/62/46 64/40/31 38/8/8
f 86/62/46 21/63/47 64/40/31
f 21/63/47 3/10/10 64/40/31
f 68/46/33 81/6/6 70/18/16
f 89/64/48 82/65/6 69/42/33
f 69/42/33 9/41/32 89/64/48
f 71/5/5 83/66/49 37/25/20
f 83/66/49 35/49/38 37/25/20
f 83/66/49 1/47/36 35/49/38
f 71/5/5 16/4/4 83/66/49
f 31/67/3 28/54/40 73/53/37
f 28/54/40 33/55/41 49/27/22
f 31/67/3 14/68/2 28/54/40
f 29/69/40 15/2/2 34/70/41
f 15/2/2 27/71/50 34/70/41
f 25/72/51 86/62/46 76/61/42
f 76/61/42 86/62/46 24/7/7
f 25/72/51 101/73/52 86/62/46
f 101/73/52 4/74/53 86/62/46
f 21/63/47 22/44/35 3/10/10
f 86/62/46 87/75/54 21/63/47
f 87/75/54 8/76/55 21/63/47
f 21/63/47 8/76/55 22/44/35
f 86/62/46 4/74/53 87/75/54
f 6/77/56 89/64/48 9/41/32
f 6/77/56 19/78/57 89/64/48
f 19/78/57 17/79/58 89/64/48
f 89/64/48 17/79/58 82/65/6
f 18/80/58 91/81/59 85/82/49
f 19/78/57 90/83/59 17/79/58
f 92/84/60 12/85/61 84/86/62
f 11/87/63 1/47/36 83/66/49
f 13/88/64 15/2/2 2/1/1
f 92/84/60 94/89/65 12/85/61
f 20/90/57 95/91/65 93/92/66
f 13/88/64 95/91/65 15/2/2
f 95/91/65 97/93/67 15/2/2
f 97/93/67 27/71/50 15/2/2
f 20/90/57 97/93/67 95/91/65
f 88/94/54 98/95/68 9/41/69
f 5/96/53 100/97/70 88/94/54
f 99/98/68 7/99/71 10/100/69
f 88/94/54 100/97/70 98/95/68
f 100/97/70 104/101/72 98/95/68
f 98/95/68 104/101/72 6/77/56
f 104/101/72 19/78/57 6/77/56
f 97/93/67 103/102/73 27/71/50
f 19/78/57 104/101/72 96/103/67
f 96/103/67 104/101/72 102/104/52
f 104/101/72 5/96/53 102/104/52
f 104/101/72 100/97/70 5/96/53
