# Blender 4.3.2
# www.blender.org
o collider.001
v -0.399471 -0.399471 0.500335
v -0.399471 0.399471 0.500335
v 0.399471 -0.399471 0.500335
v 0.399471 0.399471 0.500335
v -0.399471 -0.399471 0.230797
v -0.399471 0.399471 0.230797
v 0.399471 -0.399471 0.230797
v 0.399471 0.399471 0.230797
v -0.229149 0.399471 0.500335
v 0.229149 0.399471 0.500335
v 0.229149 -0.399471 0.500335
v -0.229149 -0.399471 0.500335
v -0.229149 0.399471 0.230797
v 0.229149 0.399471 0.230797
v -0.229149 -0.399471 0.230797
v 0.229149 -0.399471 0.230797
v -0.399471 0.228388 0.230797
v -0.399471 -0.228388 0.230797
v 0.889751 -0.399471 0.230797
v 0.889751 0.399471 0.230797
v 0.399471 0.228388 0.500335
v 0.399471 -0.228388 0.500335
v -0.399471 -0.228388 0.500335
v -0.399471 0.228388 0.500335
v -0.229149 -0.228388 0.500335
v -0.229149 0.228388 0.500335
v 0.229149 0.228388 0.500335
v 0.229149 -0.228388 0.500335
v -0.517498 0.228388 0.230797
v -0.517498 -0.228388 0.230797
v -0.229149 -0.228388 0.616196
v -0.229149 0.228388 0.616196
v 0.229149 0.228388 0.616196
v 0.229149 -0.228388 0.616196
v 0.619262 0.399471 0.230797
v 0.619262 -0.399471 0.230797
v 0.619262 -0.399471 0.500335
v 0.619262 0.399471 0.500335
v 0.766869 0.228388 0.835652
v 0.619262 0.228388 0.500335
v 0.619262 -0.228388 0.500335
v 0.884255 -0.228388 0.641328
v 0.766869 -0.228388 0.835652
v 0.889751 -0.399471 0.500335
v 0.889751 0.399471 0.500335
v 0.889751 -0.228388 0.230797
v 0.889751 0.228388 0.230797
v 0.889751 0.228388 0.500335
v 0.889751 -0.228388 0.500335
v 0.884255 -0.399471 0.641328
v 0.766869 -0.399471 0.835652
v 0.884255 0.399471 0.641328
v 0.766869 0.399471 0.835652
v 0.884255 0.228388 0.641328
v -0.399471 0.399471 0.000000
v 0.399471 0.399471 0.000000
v 0.399471 -0.399471 0.000000
v -0.399471 -0.399471 0.000000
v 0.229149 0.399471 0.000000
v -0.229149 0.399471 0.000000
v -0.229149 -0.399471 0.000000
v 0.229149 -0.399471 0.000000
v -0.399471 -0.228388 0.000000
v -0.399471 0.228388 0.000000
v -0.517498 -0.228388 0.000000
v -0.517498 0.228388 0.000000
v 0.619262 0.399471 0.000000
v 0.619262 -0.399471 0.000000
v 0.889751 0.399471 0.000000
v 0.889751 -0.399471 0.000000
v 0.889751 -0.228388 0.000000
v 0.889751 0.228388 0.000000
v -0.399471 -0.399471 -0.500335
v -0.399471 0.399471 -0.500335
v 0.399471 -0.399471 -0.500335
v 0.399471 0.399471 -0.500335
v -0.399471 -0.399471 -0.230797
v -0.399471 0.399471 -0.230797
v 0.399471 -0.399471 -0.230797
v 0.399471 0.399471 -0.230797
v -0.229149 0.399471 -0.500335
v 0.229149 0.399471 -0.500335
v 0.229149 -0.399471 -0.500335
v -0.229149 -0.399471 -0.500335
v -0.229149 0.399471 -0.230797
v 0.229149 0.399471 -0.230797
v -0.229149 -0.399471 -0.230797
v 0.229149 -0.399471 -0.230797
v -0.399471 0.228388 -0.230797
v -0.399471 -0.228388 -0.230797
v 0.889751 -0.399471 -0.230797
v 0.889751 0.399471 -0.230797
v 0.399471 0.228388 -0.500335
v 0.399471 -0.228388 -0.500335
v -0.399471 -0.228388 -0.500335
v -0.399471 0.228388 -0.500335
v -0.229149 -0.228388 -0.500335
v -0.229149 0.228388 -0.500335
v 0.229149 0.228388 -0.500335
v 0.229149 -0.228388 -0.500335
v -0.517498 0.228388 -0.230797
v -0.517498 -0.228388 -0.230797
v -0.229149 -0.228388 -0.616196
v -0.229149 0.228388 -0.616196
v 0.229149 0.228388 -0.616196
v 0.229149 -0.228388 -0.616196
v 0.619262 0.399471 -0.230797
v 0.619262 -0.399471 -0.230797
v 0.619262 -0.399471 -0.500335
v 0.619262 0.399471 -0.500335
v 0.766869 0.228388 -0.835652
v 0.619262 0.228388 -0.500335
v 0.619262 -0.228388 -0.500335
v 0.884255 -0.228388 -0.641328
v 0.766869 -0.228388 -0.835652
v 0.889751 -0.399471 -0.500335
v 0.889751 0.399471 -0.500335
v 0.889751 -0.228388 -0.230797
v 0.889751 0.228388 -0.230797
v 0.889751 0.228388 -0.500335
v 0.889751 -0.228388 -0.500335
v 0.884255 -0.399471 -0.641328
v 0.766869 -0.399471 -0.835652
v 0.884255 0.399471 -0.641328
v 0.766869 0.399471 -0.835652
v 0.884255 0.228388 -0.641328
v 0.619262 -0.587390 0.000000
v 0.619262 -0.587390 0.230797
v 0.619262 -0.587390 0.500335
v 0.619262 0.587390 0.500335
v 0.619262 0.587390 0.230797
v 0.889751 0.587390 0.230797
v 0.889751 -0.587390 0.500335
v 0.889751 -0.587390 0.230797
v 0.889751 0.587390 0.500335
v 0.884255 0.587390 0.641328
v 0.889751 -0.587390 0.000000
v 0.884255 -0.587390 0.641328
v 0.766869 -0.587390 0.835652
v 0.766869 0.587390 0.835652
v 0.619262 0.587390 0.000000
v 0.889751 0.587390 0.000000
v 0.619262 -0.587390 -0.230797
v 0.619262 -0.587390 -0.500335
v 0.619262 0.587390 -0.500335
v 0.619262 0.587390 -0.230797
v 0.889751 0.587390 -0.230797
v 0.889751 -0.587390 -0.500335
v 0.889751 -0.587390 -0.230797
v 0.889751 0.587390 -0.500335
v 0.884255 0.587390 -0.641328
v 0.884255 -0.587390 -0.641328
v 0.766869 -0.587390 -0.835652
v 0.766869 0.587390 -0.835652
vn -0.0000 1.0000 -0.0000
vn -0.0000 -0.0000 1.0000
vn -1.0000 -0.0000 -0.0000
vn -0.0000 -1.0000 -0.0000
vn 1.0000 -0.0000 -0.0000
vn 0.9992 -0.0000 0.0390
vn 0.8560 -0.0000 -0.5171
vn 0.8560 -0.0000 0.5171
vn -0.9152 -0.0000 0.4029
vn -0.0000 -0.0000 -1.0000
vn -0.9152 -0.0000 -0.4029
vn 0.9992 -0.0000 -0.0390
vt 0.625000 0.680677
vt 0.678296 0.680677
vt 0.678296 0.750000
vt 0.625000 0.750000
vt 0.571466 0.750000
vt 0.375000 0.750000
vt 0.428534 0.750000
vt 0.428534 0.803296
vt 0.375000 0.803296
vt 0.428534 0.125000
vt 0.375000 0.125000
vt 0.375000 0.069323
vt 0.428534 0.069323
vt 0.321704 0.680677
vt 0.375000 0.680677
vt 0.321704 0.750000
vt 0.125000 0.680677
vt 0.178296 0.680677
vt 0.178296 0.750000
vt 0.125000 0.750000
vt 0.375000 0.946704
vt 0.428534 0.946704
vt 0.428534 1.000000
vt 0.375000 1.000000
vt 0.821704 0.680677
vt 0.821704 0.750000
vt 0.875000 0.680677
vt 0.875000 0.750000
vt 0.625000 0.946704
vt 0.571466 0.946704
vt 0.571466 0.803296
vt 0.625000 0.803296
vt 0.625000 0.125000
vt 0.571466 0.125000
vt 0.571466 0.069323
vt 0.625000 0.069323
vt 0.571466 0.000000
vt 0.625000 0.000000
vt 0.625000 1.000000
vt 0.571466 1.000000
vt 0.428534 0.000000
vt 0.375000 0.000000
vt 0.375000 0.625000
vt 0.625000 0.625000
vt 0.571466 0.680677
vt 0.428534 0.680677
vt 0.428534 0.625000
vt 0.571466 0.625000
vt 0.178296 0.625000
vt 0.321704 0.625000
vt 0.678296 0.625000
vt 0.821704 0.625000
vt 0.875000 0.625000
vt 0.125000 0.625000
s 0
f 8/1/1 14/2/1 10/3/1 4/4/1
f 4/4/2 21/5/2 40/5/2 38/4/2
f 3/6/2 22/7/2 28/8/2 11/9/2
f 63/10/3 58/11/3 5/12/3 18/13/3
f 16/14/4 7/15/4 3/6/4 11/16/4
f 5/17/4 15/18/4 12/19/4 1/20/4
f 12/21/2 25/22/2 23/23/2 1/24/2
f 16/14/4 11/16/4 12/19/4 15/18/4
f 13/25/1 9/26/1 10/3/1 14/2/1
f 13/25/1 6/27/1 2/28/1 9/26/1
f 25/22/2 12/21/2 11/9/2 28/8/2
f 9/29/2 26/30/2 27/31/2 10/32/2
f 55/33/3 64/34/3 17/35/3 6/36/3
f 24/37/3 2/38/3 6/36/3 17/35/3
f 22/7/2 3/6/2 37/6/2 41/7/2
f 21/5/2 4/4/2 10/32/2 27/31/2
f 21/5/2 22/7/2 41/7/2 40/5/2
f 26/30/2 9/29/2 2/39/2 24/40/2
f 24/37/3 17/35/3 18/13/3 23/41/3
f 26/30/2 24/40/2 23/23/2 25/22/2
f 26/30/3 25/22/3 31/22/3 32/30/3
f 21/5/2 27/31/2 28/8/2 22/7/2
f 1/42/3 23/41/3 18/13/3 5/12/3
f 65/10/3 30/13/3 29/35/3 66/34/3
f 31/22/2 34/8/2 33/31/2 32/30/2
f 28/8/5 27/31/5 33/31/5 34/8/5
f 18/13/2 17/35/2 29/35/2 30/13/2
f 25/22/4 28/8/4 34/8/4 31/22/4
f 63/10/4 18/13/4 30/13/4 65/10/4
f 27/31/1 26/30/1 32/30/1 33/31/1
f 108/15/3 109/6/3 144/6/3 143/15/3
f 70/43/5 19/15/5 134/15/5 137/43/5
f 116/6/5 91/15/5 149/15/5 148/6/5
f 48/5/6 45/4/6 52/4/6 54/5/6
f 8/1/1 4/4/1 38/4/1 35/1/1
f 56/44/1 8/1/1 35/1/1 67/44/1
f 3/6/4 7/15/4 36/15/4 37/6/4
f 47/45/5 20/1/5 45/4/5 48/5/5
f 19/15/5 46/46/5 49/7/5 44/6/5
f 47/45/5 48/5/5 49/7/5 46/46/5
f 49/7/6 48/5/6 54/5/6 42/7/6
f 123/6/7 122/6/7 152/6/7 153/6/7
f 39/5/8 43/7/8 42/7/8 54/5/8
f 53/4/8 39/5/8 54/5/8 52/4/8
f 43/7/8 51/6/8 50/6/8 42/7/8
f 68/43/3 108/15/3 143/15/3 127/43/3
f 41/7/9 37/6/9 51/6/9 43/7/9
f 40/5/9 41/7/9 43/7/9 39/5/9
f 38/4/9 40/5/9 39/5/9 53/4/9
f 44/6/6 49/7/6 42/7/6 50/6/6
f 46/46/5 71/47/5 72/48/5 47/45/5
f 46/46/5 19/15/5 70/43/5 71/47/5
f 20/1/5 47/45/5 72/48/5 69/44/5
f 91/15/5 70/43/5 137/43/5 149/15/5
f 17/35/1 64/34/1 66/34/1 29/35/1
f 7/15/4 57/43/4 68/43/4 36/15/4
f 15/18/4 61/49/4 62/50/4 16/14/4
f 14/2/1 59/51/1 60/52/1 13/25/1
f 14/2/1 8/1/1 56/44/1 59/51/1
f 7/15/4 16/14/4 62/50/4 57/43/4
f 6/27/1 13/25/1 60/52/1 55/53/1
f 15/18/4 5/17/4 58/54/4 61/49/4
f 80/1/1 76/4/1 82/3/1 86/2/1
f 76/4/10 110/4/10 112/5/10 93/5/10
f 75/6/10 83/9/10 100/8/10 94/7/10
f 63/10/3 90/13/3 77/12/3 58/11/3
f 88/14/4 83/16/4 75/6/4 79/15/4
f 77/17/4 73/20/4 84/19/4 87/18/4
f 84/21/10 73/24/10 95/23/10 97/22/10
f 88/14/4 87/18/4 84/19/4 83/16/4
f 85/25/1 86/2/1 82/3/1 81/26/1
f 85/25/1 81/26/1 74/28/1 78/27/1
f 97/22/10 100/8/10 83/9/10 84/21/10
f 81/29/10 82/32/10 99/31/10 98/30/10
f 55/33/3 78/36/3 89/35/3 64/34/3
f 96/37/3 89/35/3 78/36/3 74/38/3
f 94/7/10 113/7/10 109/6/10 75/6/10
f 93/5/10 99/31/10 82/32/10 76/4/10
f 93/5/10 112/5/10 113/7/10 94/7/10
f 98/30/10 96/40/10 74/39/10 81/29/10
f 96/37/3 95/41/3 90/13/3 89/35/3
f 98/30/10 97/22/10 95/23/10 96/40/10
f 98/30/3 104/30/3 103/22/3 97/22/3
f 93/5/10 94/7/10 100/8/10 99/31/10
f 73/42/3 77/12/3 90/13/3 95/41/3
f 65/10/3 66/34/3 101/35/3 102/13/3
f 103/22/10 104/30/10 105/31/10 106/8/10
f 100/8/5 106/8/5 105/31/5 99/31/5
f 90/13/10 102/13/10 101/35/10 89/35/10
f 97/22/4 103/22/4 106/8/4 100/8/4
f 63/10/4 65/10/4 102/13/4 90/13/4
f 99/31/1 105/31/1 104/30/1 98/30/1
f 51/6/9 37/6/9 129/6/9 139/6/9
f 44/6/6 50/6/6 138/6/6 133/6/6
f 109/6/11 123/6/11 153/6/11 144/6/11
f 120/5/12 126/5/12 124/4/12 117/4/12
f 80/1/1 107/1/1 110/4/1 76/4/1
f 56/44/1 67/44/1 107/1/1 80/1/1
f 75/6/4 109/6/4 108/15/4 79/15/4
f 119/45/5 120/5/5 117/4/5 92/1/5
f 91/15/5 116/6/5 121/7/5 118/46/5
f 119/45/5 118/46/5 121/7/5 120/5/5
f 121/7/12 114/7/12 126/5/12 120/5/12
f 38/4/9 53/4/9 140/4/9 130/4/9
f 111/5/7 126/5/7 114/7/7 115/7/7
f 125/4/7 124/4/7 126/5/7 111/5/7
f 115/7/7 114/7/7 122/6/7 123/6/7
f 122/6/12 116/6/12 148/6/12 152/6/12
f 113/7/11 115/7/11 123/6/11 109/6/11
f 112/5/11 111/5/11 115/7/11 113/7/11
f 110/4/11 125/4/11 111/5/11 112/5/11
f 116/6/12 122/6/12 114/7/12 121/7/12
f 118/46/5 119/45/5 72/48/5 71/47/5
f 118/46/5 71/47/5 70/43/5 91/15/5
f 92/1/5 69/44/5 72/48/5 119/45/5
f 125/4/11 110/4/11 145/4/11 154/4/11
f 89/35/1 101/35/1 66/34/1 64/34/1
f 79/15/4 108/15/4 68/43/4 57/43/4
f 87/18/4 88/14/4 62/50/4 61/49/4
f 86/2/1 85/25/1 60/52/1 59/51/1
f 86/2/1 59/51/1 56/44/1 80/1/1
f 79/15/4 57/43/4 62/50/4 88/14/4
f 78/27/1 55/53/1 60/52/1 85/25/1
f 87/18/4 61/49/4 58/54/4 77/17/4
f 135/4/1 130/4/1 140/4/1 136/4/1
f 141/44/1 131/1/1 132/1/1 142/44/1
f 129/6/4 128/15/4 134/15/4 133/6/4
f 131/1/1 130/4/1 135/4/1 132/1/1
f 129/6/4 133/6/4 138/6/4 139/6/4
f 128/15/4 127/43/4 137/43/4 134/15/4
f 150/4/1 151/4/1 154/4/1 145/4/1
f 141/44/1 142/44/1 147/1/1 146/1/1
f 144/6/4 148/6/4 149/15/4 143/15/4
f 146/1/1 147/1/1 150/4/1 145/4/1
f 144/6/4 153/6/4 152/6/4 148/6/4
f 143/15/4 149/15/4 137/43/4 127/43/4
f 36/15/3 68/43/3 127/43/3 128/15/3
f 124/4/7 125/4/7 154/4/7 151/4/7
f 50/6/8 51/6/8 139/6/8 138/6/8
f 92/1/5 117/4/5 150/4/5 147/1/5
f 19/15/5 44/6/5 133/6/5 134/15/5
f 110/4/3 107/1/3 146/1/3 145/4/3
f 37/6/3 36/15/3 128/15/3 129/6/3
f 53/4/8 52/4/8 136/4/8 140/4/8
f 45/4/5 20/1/5 132/1/5 135/4/5
f 35/1/3 38/4/3 130/4/3 131/1/3
f 107/1/3 67/44/3 141/44/3 146/1/3
f 69/44/5 92/1/5 147/1/5 142/44/5
f 67/44/3 35/1/3 131/1/3 141/44/3
f 117/4/12 124/4/12 151/4/12 150/4/12
f 20/1/5 69/44/5 142/44/5 132/1/5
f 52/4/6 45/4/6 135/4/6 136/4/6
