# Blender 4.3.1
# www.blender.org
mtllib finalest_battery.mtl
o Cylinder
v 0.000000 -0.216158 -0.230873
v 0.000000 0.216158 -0.230873
v 0.088351 0.216158 -0.213298
v 0.088351 -0.216158 -0.213298
v 0.163252 0.216158 -0.163252
v 0.163252 -0.216158 -0.163252
v 0.213298 0.216158 -0.088351
v 0.213298 -0.216158 -0.088351
v 0.230873 0.216158 0.000000
v 0.230873 -0.216158 0.000000
v 0.213298 0.216158 0.088351
v 0.213298 -0.216158 0.088351
v 0.163252 0.216158 0.163252
v 0.163252 -0.216158 0.163252
v 0.088351 0.216158 0.213298
v 0.088351 -0.216158 0.213298
v 0.000000 0.216158 0.230873
v 0.000000 -0.216158 0.230873
v -0.088351 0.216158 0.213298
v -0.088351 -0.216158 0.213298
v -0.163252 0.216158 0.163252
v -0.163252 -0.216158 0.163252
v -0.213298 0.216158 0.088351
v -0.213298 -0.216158 0.088351
v -0.230873 0.216158 0.000000
v -0.230873 -0.216158 0.000000
v -0.213298 0.216158 -0.088351
v -0.213298 -0.216158 -0.088351
v -0.163252 0.216158 -0.163252
v -0.163252 -0.216158 -0.163252
v -0.088351 0.216158 -0.213298
v -0.088351 -0.216158 -0.213298
v 0.000000 -0.438215 -0.165963
v 0.000000 -0.374552 -0.230873
v -0.000000 0.438215 -0.165963
v 0.000000 0.374552 -0.230873
v 0.063511 -0.438215 -0.153329
v 0.088351 -0.374552 -0.213298
v 0.063511 0.438215 -0.153329
v 0.088351 0.374552 -0.213298
v 0.117353 -0.438215 -0.117353
v 0.163252 -0.374552 -0.163252
v 0.117353 0.438215 -0.117353
v 0.163252 0.374552 -0.163252
v 0.153329 -0.438215 -0.063511
v 0.213298 -0.374552 -0.088351
v 0.153329 0.438215 -0.063511
v 0.213298 0.374552 -0.088351
v 0.165963 -0.438215 0.000000
v 0.230873 -0.374552 0.000000
v 0.165963 0.438215 -0.000000
v 0.230873 0.374552 0.000000
v 0.153329 -0.438215 0.063511
v 0.213298 -0.374552 0.088351
v 0.153329 0.438215 0.063511
v 0.213298 0.374552 0.088351
v 0.117353 -0.438215 0.117353
v 0.163252 -0.374552 0.163252
v 0.117353 0.438215 0.117353
v 0.163252 0.374552 0.163252
v 0.063511 -0.438215 0.153329
v 0.088351 -0.374552 0.213298
v 0.063511 0.438215 0.153329
v 0.088351 0.374552 0.213298
v -0.000000 -0.438215 0.165963
v 0.000000 -0.374552 0.230873
v 0.000000 0.438215 0.165963
v 0.000000 0.374552 0.230873
v -0.063511 -0.438215 0.153329
v -0.088351 -0.374552 0.213298
v -0.063511 0.438215 0.153329
v -0.088351 0.374552 0.213298
v -0.117353 -0.438215 0.117353
v -0.163252 -0.374552 0.163252
v -0.117353 0.438215 0.117353
v -0.163252 0.374552 0.163252
v -0.153329 -0.438215 0.063511
v -0.213298 -0.374552 0.088351
v -0.153329 0.438215 0.063511
v -0.213298 0.374552 0.088351
v -0.165963 -0.438215 -0.000000
v -0.230873 -0.374552 0.000000
v -0.165963 0.438215 0.000000
v -0.230873 0.374552 0.000000
v -0.153329 -0.438215 -0.063511
v -0.213298 -0.374552 -0.088351
v -0.153329 0.438215 -0.063511
v -0.213298 0.374552 -0.088351
v -0.117353 -0.438215 -0.117353
v -0.163252 -0.374552 -0.163252
v -0.117353 0.438215 -0.117353
v -0.163252 0.374552 -0.163252
v -0.063511 -0.438215 -0.153329
v -0.088351 -0.374552 -0.213298
v -0.063511 0.438215 -0.153329
v -0.088351 0.374552 -0.213298
v 0.000000 0.412166 -0.078540
v 0.000000 0.491998 -0.078540
v 0.046164 0.412166 -0.063540
v 0.046164 0.491998 -0.063540
v 0.074696 0.412166 -0.024270
v 0.074696 0.491998 -0.024270
v 0.074696 0.412166 0.024270
v 0.074696 0.491998 0.024270
v 0.046164 0.412166 0.063540
v 0.046164 0.491998 0.063540
v 0.000000 0.412166 0.078540
v 0.000000 0.491998 0.078540
v -0.046164 0.412166 0.063540
v -0.046164 0.491998 0.063540
v -0.074696 0.412166 0.024270
v -0.074696 0.491998 0.024270
v -0.074696 0.412166 -0.024270
v -0.074696 0.491998 -0.024270
v -0.046164 0.412166 -0.063540
v -0.046164 0.491998 -0.063540
vn -0.0000 -0.0000 -1.0000
vn 0.3827 -0.0000 -0.9239
vn 0.7071 -0.0000 -0.7071
vn 0.9239 -0.0000 -0.3827
vn 1.0000 -0.0000 -0.0000
vn 0.9239 -0.0000 0.3827
vn 0.7071 -0.0000 0.7071
vn 0.3827 -0.0000 0.9239
vn -0.0000 -0.0000 1.0000
vn -0.3827 -0.0000 0.9239
vn -0.7071 -0.0000 0.7071
vn -0.9239 -0.0000 0.3827
vn -1.0000 -0.0000 -0.0000
vn -0.9239 -0.0000 -0.3827
vn -0.7071 -0.0000 -0.7071
vn -0.3827 -0.0000 -0.9239
vn -0.0000 -0.9088 -0.4172
vn -0.0000 -0.3710 -0.9286
vn -0.0000 0.9088 -0.4172
vn -0.0000 0.3710 -0.9286
vn 0.1597 -0.9088 -0.3855
vn 0.3554 -0.3710 -0.8580
vn 0.1597 0.9088 -0.3855
vn 0.3554 0.3710 -0.8580
vn 0.2950 -0.9088 -0.2950
vn 0.6566 -0.3710 -0.6566
vn 0.2950 0.9088 -0.2950
vn 0.6566 0.3710 -0.6566
vn 0.3855 -0.9088 -0.1597
vn 0.8580 -0.3710 -0.3554
vn 0.3855 0.9088 -0.1597
vn 0.8580 0.3710 -0.3554
vn 0.4172 -0.9088 -0.0000
vn 0.9286 -0.3710 -0.0000
vn 0.4172 0.9088 -0.0000
vn 0.9286 0.3710 -0.0000
vn 0.3855 -0.9088 0.1597
vn 0.8580 -0.3710 0.3554
vn 0.3855 0.9088 0.1597
vn 0.8580 0.3710 0.3554
vn 0.2950 -0.9088 0.2950
vn 0.6566 -0.3710 0.6566
vn 0.2950 0.9088 0.2950
vn 0.6566 0.3710 0.6566
vn 0.1597 -0.9088 0.3855
vn 0.3554 -0.3710 0.8580
vn 0.1597 0.9088 0.3855
vn 0.3554 0.3710 0.8580
vn -0.0000 -0.9088 0.4172
vn -0.0000 -0.3710 0.9286
vn -0.0000 0.9088 0.4172
vn -0.0000 0.3710 0.9286
vn -0.1597 -0.9088 0.3855
vn -0.3554 -0.3710 0.8580
vn -0.1597 0.9088 0.3855
vn -0.3554 0.3710 0.8580
vn -0.2950 -0.9088 0.2950
vn -0.6566 -0.3710 0.6566
vn -0.2950 0.9088 0.2950
vn -0.6566 0.3710 0.6566
vn -0.3855 -0.9088 0.1597
vn -0.8580 -0.3710 0.3554
vn -0.3855 0.9088 0.1597
vn -0.8580 0.3710 0.3554
vn -0.4172 -0.9088 -0.0000
vn -0.9286 -0.3710 -0.0000
vn -0.4172 0.9088 -0.0000
vn -0.9286 0.3710 -0.0000
vn -0.3855 -0.9088 -0.1597
vn -0.8580 -0.3710 -0.3554
vn -0.3855 0.9088 -0.1597
vn -0.8580 0.3710 -0.3554
vn -0.2950 -0.9088 -0.2950
vn -0.6566 -0.3710 -0.6566
vn -0.2950 0.9088 -0.2950
vn -0.6566 0.3710 -0.6566
vn -0.1597 -0.9088 -0.3855
vn -0.3554 -0.3710 -0.8580
vn -0.1597 0.9088 -0.3855
vn -0.3554 0.3710 -0.8580
vn -0.0000 -0.6437 -0.7653
vn -0.0000 0.6437 -0.7653
vn 0.4498 -0.6437 -0.6191
vn 0.4498 0.6437 -0.6191
vn 0.7278 -0.6437 -0.2365
vn 0.7278 0.6437 -0.2365
vn 0.7278 -0.6437 0.2365
vn 0.7278 0.6437 0.2365
vn 0.4498 -0.6437 0.6191
vn 0.4498 0.6437 0.6191
vn -0.0000 -0.6437 0.7653
vn -0.0000 0.6437 0.7653
vn -0.4498 -0.6437 0.6191
vn -0.4498 0.6437 0.6191
vn -0.7278 -0.6437 0.2365
vn -0.7278 0.6437 0.2365
vn -0.7278 -0.6437 -0.2365
vn -0.7278 0.6437 -0.2365
vn -0.4498 -0.6437 -0.6191
vn -0.4498 0.6437 -0.6191
vt 0.617925 0.133007
vt 0.617925 0.002599
vt 0.670583 0.002599
vt 0.670583 0.133007
vt 0.797075 0.619347
vt 0.797075 0.488939
vt 0.871241 0.488939
vt 0.871241 0.619347
vt 0.939644 0.488939
vt 0.939644 0.619347
vt 0.991870 0.488939
vt 0.991870 0.619347
vt 0.002599 0.619347
vt 0.002599 0.488939
vt 0.053140 0.488939
vt 0.053140 0.619347
vt 0.120606 0.488939
vt 0.120606 0.619347
vt 0.194724 0.488939
vt 0.194724 0.619347
vt 0.264212 0.488939
vt 0.264212 0.619347
vt 0.318491 0.488939
vt 0.318491 0.619347
vt 0.349296 0.488939
vt 0.349296 0.619347
vt 0.354493 0.619347
vt 0.354493 0.488939
vt 0.406720 0.488939
vt 0.406720 0.619347
vt 0.475123 0.488939
vt 0.475123 0.619347
vt 0.549288 0.488939
vt 0.549288 0.619347
vt 0.617925 0.488939
vt 0.617925 0.619347
vt 0.675780 0.133007
vt 0.675780 0.002599
vt 0.728439 0.002599
vt 0.728439 0.133007
vt 0.728439 0.619347
vt 0.728439 0.488939
vt 0.670583 0.488939
vt 0.670583 0.619347
vt 0.113114 0.924585
vt 0.075415 0.886886
vt 0.055013 0.837630
vt 0.055013 0.784316
vt 0.075415 0.735060
vt 0.113114 0.697361
vt 0.162370 0.676959
vt 0.215684 0.676959
vt 0.264940 0.697361
vt 0.302639 0.735060
vt 0.323041 0.784316
vt 0.323041 0.837630
vt 0.302639 0.886886
vt 0.264940 0.924585
vt 0.215684 0.944987
vt 0.162370 0.944987
vt 0.549288 0.133007
vt 0.549288 0.002599
vt 0.475123 0.133007
vt 0.475123 0.002599
vt 0.406720 0.133007
vt 0.406720 0.002599
vt 0.354493 0.133007
vt 0.354493 0.002599
vt 0.318491 0.133007
vt 0.318491 0.002599
vt 0.349296 0.002599
vt 0.349296 0.133007
vt 0.264212 0.133007
vt 0.264212 0.002599
vt 0.194724 0.133007
vt 0.194724 0.002599
vt 0.120606 0.133007
vt 0.120606 0.002599
vt 0.053140 0.133007
vt 0.053140 0.002599
vt 0.002599 0.133007
vt 0.002599 0.002599
vt 0.939644 0.133007
vt 0.939644 0.002599
vt 0.991870 0.002599
vt 0.991870 0.133007
vt 0.871241 0.133007
vt 0.871241 0.002599
vt 0.797075 0.133007
vt 0.797075 0.002599
vt 0.453469 0.886886
vt 0.433067 0.837630
vt 0.433067 0.784316
vt 0.453469 0.735060
vt 0.491168 0.697361
vt 0.540424 0.676959
vt 0.593738 0.676959
vt 0.642994 0.697361
vt 0.680693 0.735060
vt 0.701095 0.784316
vt 0.701095 0.837630
vt 0.680693 0.886886
vt 0.642994 0.924585
vt 0.593738 0.944987
vt 0.540424 0.944987
vt 0.491168 0.924585
vt 0.675780 0.488939
vt 0.409035 0.916576
vt 0.380653 0.848056
vt 0.083424 0.969019
vt 0.030981 0.916576
vt 0.380653 0.773890
vt 0.151944 0.997402
vt 0.409035 0.705370
vt 0.226110 0.997402
vt 0.461478 0.652927
vt 0.294630 0.969019
vt 0.529998 0.624545
vt 0.347073 0.916576
vt 0.604164 0.624545
vt 0.375455 0.848056
vt 0.672684 0.652927
vt 0.375455 0.773890
vt 0.725127 0.705370
vt 0.347073 0.705370
vt 0.753509 0.773890
vt 0.294630 0.652927
vt 0.753509 0.848056
vt 0.226110 0.624545
vt 0.725127 0.916576
vt 0.151944 0.624545
vt 0.672684 0.969019
vt 0.083424 0.652927
vt 0.604164 0.997401
vt 0.030981 0.705370
vt 0.529998 0.997401
vt 0.002599 0.773890
vt 0.461478 0.969019
vt 0.002599 0.848056
vt 0.675780 0.619347
vt 0.977913 0.879963
vt 0.908488 0.879963
vt 0.908488 0.846705
vt 0.977913 0.846705
vt 0.908488 0.804519
vt 0.977913 0.804519
vt 0.908488 0.769517
vt 0.977913 0.769517
vt 0.977913 0.755668
vt 0.908488 0.755668
vt 0.908488 0.725711
vt 0.977913 0.725711
vt 0.908488 0.683994
vt 0.977913 0.683994
vt 0.908488 0.646453
vt 0.977913 0.646453
vt 0.908488 0.627425
vt 0.977913 0.627425
vt 0.977913 0.995898
vt 0.908488 0.995898
vt 0.908488 0.960896
vt 0.977913 0.960896
vt 0.827587 0.807562
vt 0.783070 0.793098
vt 0.755558 0.755230
vt 0.755558 0.708423
vt 0.783070 0.670555
vt 0.827587 0.656091
vt 0.872103 0.670555
vt 0.899616 0.708423
vt 0.899616 0.755230
vt 0.872103 0.793098
vt 0.908488 0.918710
vt 0.977913 0.918710
vt 0.908488 0.885452
vt 0.977913 0.885452
vt 0.783070 0.950657
vt 0.755558 0.912789
vt 0.755558 0.865981
vt 0.783070 0.828113
vt 0.827587 0.813649
vt 0.872103 0.828113
vt 0.899616 0.865981
vt 0.899616 0.912789
vt 0.872103 0.950657
vt 0.827587 0.965121
s 1
usemtl Material.010
f 31/1/16 96/2/80 36/3/20 2/4/1
f 42/5/26 6/6/3 8/7/4 46/8/30
f 46/8/30 8/7/4 10/9/5 50/10/34
f 50/10/34 10/9/5 12/11/6 54/12/38
f 54/13/38 12/14/6 14/15/7 58/16/42
f 58/16/42 14/15/7 16/17/8 62/18/46
f 62/18/46 16/17/8 18/19/9 66/20/50
f 66/20/50 18/19/9 20/21/10 70/22/54
f 70/22/54 20/21/10 22/23/11 74/24/58
f 74/24/58 22/23/11 24/25/12 78/26/62
f 78/27/62 24/28/12 26/29/13 82/30/66
f 82/30/66 26/29/13 28/31/14 86/32/70
f 86/32/70 28/31/14 30/33/15 90/34/74
f 90/34/74 30/33/15 32/35/16 94/36/78
f 2/37/1 36/38/20 40/39/24 3/40/2
f 38/41/22 4/42/2 6/6/3 42/5/26
f 94/36/78 32/35/16 1/43/1 34/44/18
f 39/45/23 35/46/19 95/47/79 91/48/75 87/49/71 83/50/67 79/51/63 75/52/59 71/53/55 67/54/51 63/55/47 59/56/43 55/57/39 51/58/35 47/59/31 43/60/27
f 32/35/16 31/1/16 2/4/1 1/43/1
f 29/61/15 92/62/76 96/2/80 31/1/16
f 30/33/15 29/61/15 31/1/16 32/35/16
f 27/63/14 88/64/72 92/62/76 29/61/15
f 28/31/14 27/63/14 29/61/15 30/33/15
f 25/65/13 84/66/68 88/64/72 27/63/14
f 26/29/13 25/65/13 27/63/14 28/31/14
f 23/67/12 80/68/64 84/66/68 25/65/13
f 24/28/12 23/67/12 25/65/13 26/29/13
f 21/69/11 76/70/60 80/71/64 23/72/12
f 22/23/11 21/69/11 23/72/12 24/25/12
f 19/73/10 72/74/56 76/70/60 21/69/11
f 20/21/10 19/73/10 21/69/11 22/23/11
f 17/75/9 68/76/52 72/74/56 19/73/10
f 18/19/9 17/75/9 19/73/10 20/21/10
f 15/77/8 64/78/48 68/76/52 17/75/9
f 16/17/8 15/77/8 17/75/9 18/19/9
f 13/79/7 60/80/44 64/78/48 15/77/8
f 14/15/7 13/79/7 15/77/8 16/17/8
f 11/81/6 56/82/40 60/80/44 13/79/7
f 12/14/6 11/81/6 13/79/7 14/15/7
f 9/83/5 52/84/36 56/85/40 11/86/6
f 10/9/5 9/83/5 11/86/6 12/11/6
f 7/87/4 48/88/32 52/84/36 9/83/5
f 8/7/4 7/87/4 9/83/5 10/9/5
f 5/89/3 44/90/28 48/88/32 7/87/4
f 6/6/3 5/89/3 7/87/4 8/7/4
f 3/40/2 40/39/24 44/90/28 5/89/3
f 4/42/2 3/40/2 5/89/3 6/6/3
f 33/91/17 37/92/21 41/93/25 45/94/29 49/95/33 53/96/37 57/97/41 61/98/45 65/99/49 69/100/53 73/101/57 77/102/61 81/103/65 85/104/69 89/105/73 93/106/77
f 1/107/1 2/37/1 3/40/2 4/42/2
f 34/108/18 38/109/22 37/92/21 33/91/17
f 40/110/24 36/111/20 35/46/19 39/45/23
f 38/109/22 42/112/26 41/93/25 37/92/21
f 44/113/28 40/110/24 39/45/23 43/60/27
f 42/112/26 46/114/30 45/94/29 41/93/25
f 48/115/32 44/113/28 43/60/27 47/59/31
f 46/114/30 50/116/34 49/95/33 45/94/29
f 52/117/36 48/115/32 47/59/31 51/58/35
f 50/116/34 54/118/38 53/96/37 49/95/33
f 56/119/40 52/117/36 51/58/35 55/57/39
f 54/118/38 58/120/42 57/97/41 53/96/37
f 60/121/44 56/119/40 55/57/39 59/56/43
f 58/120/42 62/122/46 61/98/45 57/97/41
f 64/123/48 60/121/44 59/56/43 63/55/47
f 62/122/46 66/124/50 65/99/49 61/98/45
f 68/125/52 64/123/48 63/55/47 67/54/51
f 66/124/50 70/126/54 69/100/53 65/99/49
f 72/127/56 68/125/52 67/54/51 71/53/55
f 70/126/54 74/128/58 73/101/57 69/100/53
f 76/129/60 72/127/56 71/53/55 75/52/59
f 74/128/58 78/130/62 77/102/61 73/101/57
f 80/131/64 76/129/60 75/52/59 79/51/63
f 78/130/62 82/132/66 81/103/65 77/102/61
f 84/133/68 80/131/64 79/51/63 83/50/67
f 82/132/66 86/134/70 85/104/69 81/103/65
f 88/135/72 84/133/68 83/50/67 87/49/71
f 86/134/70 90/136/74 89/105/73 85/104/69
f 92/137/76 88/135/72 87/49/71 91/48/75
f 90/136/74 94/138/78 93/106/77 89/105/73
f 96/139/80 92/137/76 91/48/75 95/47/79
f 94/138/78 34/108/18 33/91/17 93/106/77
f 36/111/20 96/139/80 95/47/79 35/46/19
f 34/140/18 1/107/1 4/42/2 38/41/22
f 97/141/81 98/142/82 100/143/84 99/144/83
f 99/144/83 100/143/84 102/145/86 101/146/85
f 101/146/85 102/145/86 104/147/88 103/148/87
f 103/149/87 104/150/88 106/151/90 105/152/89
f 105/152/89 106/151/90 108/153/92 107/154/91
f 107/154/91 108/153/92 110/155/94 109/156/93
f 109/156/93 110/155/94 112/157/96 111/158/95
f 111/159/95 112/160/96 114/161/98 113/162/97
f 100/163/84 98/164/82 116/165/100 114/166/98 112/167/96 110/168/94 108/169/92 106/170/90 104/171/88 102/172/86
f 113/162/97 114/161/98 116/173/100 115/174/99
f 115/174/99 116/173/100 98/175/82 97/176/81
f 97/177/81 99/178/83 101/179/85 103/180/87 105/181/89 107/182/91 109/183/93 111/184/95 113/185/97 115/186/99
