# Blender 4.3.2
# www.blender.org
o colider
v -0.472827 -0.450977 0.523640
v -0.472827 0.453644 0.523640
v -0.472827 -0.450977 -0.523640
v -0.472827 0.453644 -0.523640
v 0.713894 -0.404645 0.453977
v 0.713894 0.407312 0.453977
v 0.713894 -0.404645 -0.453977
v 0.713894 0.407312 -0.453977
v 0.675426 0.453644 -0.523640
v 0.675426 -0.450977 -0.523640
v 0.675426 -0.450977 0.523640
v 0.675426 0.453644 0.523640
v 0.810065 0.407312 -0.453977
v 0.810065 -0.404645 -0.453977
v 0.810065 -0.404645 0.453977
v 0.810065 0.407312 0.453977
v 0.916921 0.257364 -0.354301
v 0.916921 -0.254697 -0.354301
v 0.916921 -0.254697 0.354301
v 0.916921 0.257364 0.354301
v -0.632362 -0.310426 -0.295306
v -0.632362 -0.310426 0.295306
v -0.632362 0.313093 0.295306
v -0.632362 0.313093 -0.295306
v -0.632362 -0.405703 -0.392073
v -0.632362 -0.405703 0.392073
v -0.632362 0.408370 0.392073
v -0.632362 0.408370 -0.392073
v -1.296689 -0.435818 -0.414080
v -1.296689 -0.435818 0.414080
v -1.296689 0.438486 0.414080
v -1.296689 0.438486 -0.414080
v -0.964525 -0.304561 -0.289750
v -0.964525 0.307228 -0.289750
v -0.964525 0.307228 0.289750
v -0.964525 -0.304561 0.289750
vn -0.2730 0.9620 -0.0000
vn -0.0000 -0.0000 -1.0000
vn -0.0000 1.0000 -0.0000
vn -0.0000 -0.0000 1.0000
vn -0.0000 -1.0000 -0.0000
vn 0.8754 -0.0000 -0.4834
vn 0.7694 -0.6388 -0.0000
vn 0.7694 0.6388 -0.0000
vn 0.8754 -0.0000 0.4834
vn 0.6821 -0.0000 0.7312
vn 1.0000 -0.0000 -0.0000
vn 0.8144 -0.5803 -0.0000
vn 0.8144 0.5803 -0.0000
vn 0.6821 -0.0000 -0.7312
vn 0.3506 -0.0000 -0.9365
vn -0.2730 -0.9620 -0.0000
vn -0.6362 -0.0000 -0.7715
vn -0.6362 -0.0000 0.7715
vn -1.0000 -0.0000 -0.0000
vn 0.3506 -0.0000 0.9365
vn 0.3675 0.9300 -0.0000
vn 0.3675 -0.9300 -0.0000
vn -0.0177 -0.9998 -0.0000
vn -0.0177 0.9998 -0.0000
vn -0.0167 -0.0000 0.9999
vn -0.0167 -0.0000 -0.9999
vt 0.875000 0.750000
vt 0.875000 0.500000
vt 0.375000 0.250000
vt 0.625000 0.250000
vt 0.625000 0.500000
vt 0.375000 0.500000
vt 0.620715 0.504285
vt 0.620715 0.745715
vt 0.375000 0.750000
vt 0.625000 0.750000
vt 0.625000 1.000000
vt 0.375000 1.000000
vt 0.125000 0.500000
vt 0.125000 0.750000
vt 0.379285 0.504285
vt 0.379285 0.745715
vt 0.615488 0.238567
vt 0.384512 0.238567
vt 0.384512 0.011433
vt 0.375000 0.000000
vt 0.615488 0.011433
vt 0.625000 0.000000
s 0
f 2/1/1 4/2/1 28/2/1 27/1/1
f 3/3/2 4/4/2 9/5/2 10/6/2
f 8/7/3 6/8/3 16/8/3 13/7/3
f 11/9/4 12/10/4 2/11/4 1/12/4
f 3/13/5 10/6/5 11/9/5 1/14/5
f 9/5/3 4/2/3 2/1/3 12/10/3
f 8/7/6 7/15/6 10/6/6 9/5/6
f 7/15/7 5/16/7 11/9/7 10/6/7
f 6/8/8 8/7/8 9/5/8 12/10/8
f 5/16/9 6/8/9 12/10/9 11/9/9
f 16/8/10 15/16/10 19/16/10 20/8/10
f 7/15/2 8/7/2 13/7/2 14/15/2
f 6/8/4 5/16/4 15/16/4 16/8/4
f 5/16/5 7/15/5 14/15/5 15/16/5
f 18/15/11 17/7/11 20/8/11 19/16/11
f 15/16/12 14/15/12 18/15/12 19/16/12
f 13/7/13 16/8/13 20/8/13 17/7/13
f 14/15/14 13/7/14 17/7/14 18/15/14
f 34/17/15 33/18/15 29/18/15 32/17/15
f 3/13/16 1/14/16 26/14/16 25/13/16
f 4/4/17 3/3/17 25/3/17 28/4/17
f 1/12/18 2/11/18 27/11/18 26/12/18
f 22/19/19 21/18/19 25/3/19 26/20/19
f 23/21/19 22/19/19 26/20/19 27/22/19
f 24/17/19 23/21/19 27/22/19 28/4/19
f 21/18/19 24/17/19 28/4/19 25/3/19
f 30/19/19 31/21/19 32/17/19 29/18/19
f 36/19/20 35/21/20 31/21/20 30/19/20
f 35/21/21 34/17/21 32/17/21 31/21/21
f 33/18/22 36/19/22 30/19/22 29/18/22
f 21/18/23 22/19/23 36/19/23 33/18/23
f 23/21/24 24/17/24 34/17/24 35/21/24
f 22/19/25 23/21/25 35/21/25 36/19/25
f 24/17/26 21/18/26 33/18/26 34/17/26
