# Blender 4.4.3
# www.blender.org
o Cube.007
v -0.500000 -0.500000 0.728574
v -0.500000 0.500000 0.728574
v -0.500000 -0.500000 -0.728574
v -0.500000 0.500000 -0.728574
v 0.797324 -0.500000 0.728574
v 0.797324 0.500000 0.728574
v 0.797324 -0.500000 -0.728574
v 0.797324 0.500000 -0.728574
v 1.154190 -0.385277 0.298178
v 1.154190 -0.385277 -0.298178
v 1.154190 0.385277 -0.298178
v 1.154190 0.385277 0.298178
v -0.500000 -0.500000 0.465346
v -0.500000 -0.500000 -0.465346
v -0.500000 0.500000 -0.465346
v -0.500000 0.500000 0.465346
v 0.797324 -0.500000 -0.465346
v 0.797324 -0.500000 0.465346
v 0.797324 0.500000 0.465346
v 0.797324 0.500000 -0.465346
v 1.154190 -0.500000 -0.465346
v 1.154190 -0.500000 0.465346
v 1.154190 0.500000 -0.465346
v 1.154190 0.500000 0.465346
v 1.732375 -0.385277 -0.298178
v 1.732375 -0.385277 0.298178
v 1.732375 0.385277 -0.298178
v 1.732375 0.385277 0.298178
vn -0.0000 1.0000 -0.0000
vn -0.0000 -0.0000 -1.0000
vn -0.0000 -0.0000 1.0000
vn -1.0000 -0.0000 -0.0000
vn 1.0000 -0.0000 -0.0000
vn -0.0000 -1.0000 -0.0000
vt 0.625000 0.500000
vt 0.875000 0.500000
vt 0.875000 0.545161
vt 0.625000 0.545161
vt 0.375000 0.250000
vt 0.625000 0.250000
vt 0.375000 0.500000
vt 0.403681 0.573842
vt 0.596319 0.573842
vt 0.375000 0.750000
vt 0.625000 0.750000
vt 0.625000 1.000000
vt 0.375000 1.000000
vt 0.375000 0.204838
vt 0.625000 0.204838
vt 0.375000 0.545161
vt 0.625000 0.704839
vt 0.875000 0.704839
vt 0.875000 0.750000
vt 0.125000 0.704839
vt 0.375000 0.704839
vt 0.125000 0.750000
vt 0.125000 0.500000
vt 0.125000 0.545161
vt 0.375000 0.045162
vt 0.625000 0.045162
vt 0.375000 0.000000
vt 0.625000 0.000000
vt 0.403681 0.676158
vt 0.596319 0.676158
s 0
f 8/1/1 4/2/1 15/3/1 20/4/1
f 3/5/2 4/6/2 8/1/2 7/7/2
f 10/8/2 11/9/2 27/9/2 25/8/2
f 5/10/3 6/11/3 2/12/3 1/13/3
f 14/14/4 15/15/4 4/6/4 3/5/4
f 7/7/5 8/1/5 20/4/5 17/16/5
f 19/17/1 16/18/1 2/19/1 6/11/1
f 13/20/6 18/21/6 5/10/6 1/22/6
f 18/21/5 19/17/5 6/11/5 5/10/5
f 3/23/6 7/7/6 17/16/6 14/24/6
f 16/18/1 19/17/1 20/4/1 15/3/1
f 18/21/6 13/20/6 14/24/6 17/16/6
f 19/17/3 18/21/3 22/21/3 24/17/3
f 15/15/4 14/14/4 13/25/4 16/26/4
f 1/27/4 2/28/4 16/26/4 13/25/4
f 18/21/6 17/16/6 21/16/6 22/21/6
f 20/4/1 19/17/1 24/17/1 23/4/1
f 17/16/2 20/4/2 23/4/2 21/16/2
f 10/8/5 9/29/5 22/21/5 21/16/5
f 11/9/5 10/8/5 21/16/5 23/4/5
f 12/30/5 11/9/5 23/4/5 24/17/5
f 9/29/5 12/30/5 24/17/5 22/21/5
f 28/30/5 26/29/5 25/8/5 27/9/5
f 11/9/1 12/30/1 28/30/1 27/9/1
f 9/29/6 10/8/6 25/8/6 26/29/6
f 12/30/3 9/29/3 26/29/3 28/30/3
